<?xml version="1.0" encoding="utf-8"?>
<svg xmlns="http://www.w3.org/2000/svg" xmlns:xlink="http://www.w3.org/1999/xlink" width="600" height="400" viewBox="0 0 2400 1600">
<defs>
  <clipPath id="clip280">
    <rect x="0" y="0" width="2400" height="1600"/>
  </clipPath>
</defs>
<path clip-path="url(#clip280)" d="M0 1600 L2400 1600 L2400 0 L0 0  Z" fill="#ffffff" fill-rule="evenodd" fill-opacity="1"/>
<defs>
  <clipPath id="clip281">
    <rect x="480" y="0" width="1681" height="1600"/>
  </clipPath>
</defs>
<path clip-path="url(#clip280)" d="M86.9921 1521.01 L2352.76 1521.01 L2352.76 47.2441 L86.9921 47.2441  Z" fill="#ffffff" fill-rule="evenodd" fill-opacity="1"/>
<defs>
  <clipPath id="clip282">
    <rect x="86" y="47" width="2267" height="1475"/>
  </clipPath>
</defs>
<polyline clip-path="url(#clip282)" style="stroke:#000000; stroke-linecap:round; stroke-linejoin:round; stroke-width:2; stroke-opacity:0.1; fill:none" points="151.118,1521.01 151.118,47.2441 "/>
<polyline clip-path="url(#clip282)" style="stroke:#000000; stroke-linecap:round; stroke-linejoin:round; stroke-width:2; stroke-opacity:0.1; fill:none" points="596.433,1521.01 596.433,47.2441 "/>
<polyline clip-path="url(#clip282)" style="stroke:#000000; stroke-linecap:round; stroke-linejoin:round; stroke-width:2; stroke-opacity:0.1; fill:none" points="1041.75,1521.01 1041.75,47.2441 "/>
<polyline clip-path="url(#clip282)" style="stroke:#000000; stroke-linecap:round; stroke-linejoin:round; stroke-width:2; stroke-opacity:0.1; fill:none" points="1487.06,1521.01 1487.06,47.2441 "/>
<polyline clip-path="url(#clip282)" style="stroke:#000000; stroke-linecap:round; stroke-linejoin:round; stroke-width:2; stroke-opacity:0.1; fill:none" points="1932.38,1521.01 1932.38,47.2441 "/>
<polyline clip-path="url(#clip280)" style="stroke:#000000; stroke-linecap:round; stroke-linejoin:round; stroke-width:4; stroke-opacity:1; fill:none" points="86.9921,1521.01 2352.76,1521.01 "/>
<polyline clip-path="url(#clip280)" style="stroke:#000000; stroke-linecap:round; stroke-linejoin:round; stroke-width:4; stroke-opacity:1; fill:none" points="151.118,1521.01 151.118,1502.11 "/>
<polyline clip-path="url(#clip280)" style="stroke:#000000; stroke-linecap:round; stroke-linejoin:round; stroke-width:4; stroke-opacity:1; fill:none" points="596.433,1521.01 596.433,1502.11 "/>
<polyline clip-path="url(#clip280)" style="stroke:#000000; stroke-linecap:round; stroke-linejoin:round; stroke-width:4; stroke-opacity:1; fill:none" points="1041.75,1521.01 1041.75,1502.11 "/>
<polyline clip-path="url(#clip280)" style="stroke:#000000; stroke-linecap:round; stroke-linejoin:round; stroke-width:4; stroke-opacity:1; fill:none" points="1487.06,1521.01 1487.06,1502.11 "/>
<polyline clip-path="url(#clip280)" style="stroke:#000000; stroke-linecap:round; stroke-linejoin:round; stroke-width:4; stroke-opacity:1; fill:none" points="1932.38,1521.01 1932.38,1502.11 "/>
<path clip-path="url(#clip280)" d="M151.118 1551.93 Q147.506 1551.93 145.678 1555.49 Q143.872 1559.03 143.872 1566.16 Q143.872 1573.27 145.678 1576.83 Q147.506 1580.38 151.118 1580.38 Q154.752 1580.38 156.557 1576.83 Q158.386 1573.27 158.386 1566.16 Q158.386 1559.03 156.557 1555.49 Q154.752 1551.93 151.118 1551.93 M151.118 1548.22 Q156.928 1548.22 159.983 1552.83 Q163.062 1557.41 163.062 1566.16 Q163.062 1574.89 159.983 1579.5 Q156.928 1584.08 151.118 1584.08 Q145.307 1584.08 142.229 1579.5 Q139.173 1574.89 139.173 1566.16 Q139.173 1557.41 142.229 1552.83 Q145.307 1548.22 151.118 1548.22 Z" fill="#000000" fill-rule="nonzero" fill-opacity="1" /><path clip-path="url(#clip280)" d="M586.711 1548.85 L605.067 1548.85 L605.067 1552.78 L590.993 1552.78 L590.993 1561.26 Q592.011 1560.91 593.03 1560.75 Q594.048 1560.56 595.067 1560.56 Q600.854 1560.56 604.234 1563.73 Q607.613 1566.9 607.613 1572.32 Q607.613 1577.9 604.141 1581 Q600.669 1584.08 594.349 1584.08 Q592.173 1584.08 589.905 1583.71 Q587.66 1583.34 585.252 1582.6 L585.252 1577.9 Q587.336 1579.03 589.558 1579.59 Q591.78 1580.14 594.257 1580.14 Q598.261 1580.14 600.599 1578.04 Q602.937 1575.93 602.937 1572.32 Q602.937 1568.71 600.599 1566.6 Q598.261 1564.5 594.257 1564.5 Q592.382 1564.5 590.507 1564.91 Q588.655 1565.33 586.711 1566.21 L586.711 1548.85 Z" fill="#000000" fill-rule="nonzero" fill-opacity="1" /><path clip-path="url(#clip280)" d="M1016.44 1579.47 L1024.07 1579.47 L1024.07 1553.11 L1015.76 1554.77 L1015.76 1550.51 L1024.03 1548.85 L1028.7 1548.85 L1028.7 1579.47 L1036.34 1579.47 L1036.34 1583.41 L1016.44 1583.41 L1016.44 1579.47 Z" fill="#000000" fill-rule="nonzero" fill-opacity="1" /><path clip-path="url(#clip280)" d="M1055.79 1551.93 Q1052.18 1551.93 1050.35 1555.49 Q1048.54 1559.03 1048.54 1566.16 Q1048.54 1573.27 1050.35 1576.83 Q1052.18 1580.38 1055.79 1580.38 Q1059.42 1580.38 1061.23 1576.83 Q1063.06 1573.27 1063.06 1566.16 Q1063.06 1559.03 1061.23 1555.49 Q1059.42 1551.93 1055.79 1551.93 M1055.79 1548.22 Q1061.6 1548.22 1064.65 1552.83 Q1067.73 1557.41 1067.73 1566.16 Q1067.73 1574.89 1064.65 1579.5 Q1061.6 1584.08 1055.79 1584.08 Q1049.98 1584.08 1046.9 1579.5 Q1043.84 1574.89 1043.84 1566.16 Q1043.84 1557.41 1046.9 1552.83 Q1049.98 1548.22 1055.79 1548.22 Z" fill="#000000" fill-rule="nonzero" fill-opacity="1" /><path clip-path="url(#clip280)" d="M1462.25 1579.47 L1469.89 1579.47 L1469.89 1553.11 L1461.58 1554.77 L1461.58 1550.51 L1469.84 1548.85 L1474.52 1548.85 L1474.52 1579.47 L1482.16 1579.47 L1482.16 1583.41 L1462.25 1583.41 L1462.25 1579.47 Z" fill="#000000" fill-rule="nonzero" fill-opacity="1" /><path clip-path="url(#clip280)" d="M1491.65 1548.85 L1510 1548.85 L1510 1552.78 L1495.93 1552.78 L1495.93 1561.26 Q1496.95 1560.91 1497.97 1560.75 Q1498.98 1560.56 1500 1560.56 Q1505.79 1560.56 1509.17 1563.73 Q1512.55 1566.9 1512.55 1572.32 Q1512.55 1577.9 1509.08 1581 Q1505.6 1584.08 1499.29 1584.08 Q1497.11 1584.08 1494.84 1583.71 Q1492.6 1583.34 1490.19 1582.6 L1490.19 1577.9 Q1492.27 1579.03 1494.49 1579.59 Q1496.72 1580.14 1499.19 1580.14 Q1503.2 1580.14 1505.54 1578.04 Q1507.87 1575.93 1507.87 1572.32 Q1507.87 1568.71 1505.54 1566.6 Q1503.2 1564.5 1499.19 1564.5 Q1497.32 1564.5 1495.44 1564.91 Q1493.59 1565.33 1491.65 1566.21 L1491.65 1548.85 Z" fill="#000000" fill-rule="nonzero" fill-opacity="1" /><path clip-path="url(#clip280)" d="M1911.15 1579.47 L1927.47 1579.47 L1927.47 1583.41 L1905.53 1583.41 L1905.53 1579.47 Q1908.19 1576.72 1912.77 1572.09 Q1917.38 1567.44 1918.56 1566.09 Q1920.8 1563.57 1921.68 1561.83 Q1922.59 1560.07 1922.59 1558.38 Q1922.59 1555.63 1920.64 1553.89 Q1918.72 1552.16 1915.62 1552.16 Q1913.42 1552.16 1910.97 1552.92 Q1908.54 1553.69 1905.76 1555.24 L1905.76 1550.51 Q1908.58 1549.38 1911.04 1548.8 Q1913.49 1548.22 1915.53 1548.22 Q1920.9 1548.22 1924.09 1550.91 Q1927.29 1553.59 1927.29 1558.08 Q1927.29 1560.21 1926.48 1562.13 Q1925.69 1564.03 1923.58 1566.63 Q1923 1567.3 1919.9 1570.51 Q1916.8 1573.71 1911.15 1579.47 Z" fill="#000000" fill-rule="nonzero" fill-opacity="1" /><path clip-path="url(#clip280)" d="M1947.29 1551.93 Q1943.67 1551.93 1941.85 1555.49 Q1940.04 1559.03 1940.04 1566.16 Q1940.04 1573.27 1941.85 1576.83 Q1943.67 1580.38 1947.29 1580.38 Q1950.92 1580.38 1952.73 1576.83 Q1954.55 1573.27 1954.55 1566.16 Q1954.55 1559.03 1952.73 1555.49 Q1950.92 1551.93 1947.29 1551.93 M1947.29 1548.22 Q1953.1 1548.22 1956.15 1552.83 Q1959.23 1557.41 1959.23 1566.16 Q1959.23 1574.89 1956.15 1579.5 Q1953.1 1584.08 1947.29 1584.08 Q1941.48 1584.08 1938.4 1579.5 Q1935.34 1574.89 1935.34 1566.16 Q1935.34 1557.41 1938.4 1552.83 Q1941.48 1548.22 1947.29 1548.22 Z" fill="#000000" fill-rule="nonzero" fill-opacity="1" /><polyline clip-path="url(#clip282)" style="stroke:#000000; stroke-linecap:round; stroke-linejoin:round; stroke-width:2; stroke-opacity:0.1; fill:none" points="86.9921,1479.3 2352.76,1479.3 "/>
<polyline clip-path="url(#clip282)" style="stroke:#000000; stroke-linecap:round; stroke-linejoin:round; stroke-width:2; stroke-opacity:0.1; fill:none" points="86.9921,1201.24 2352.76,1201.24 "/>
<polyline clip-path="url(#clip282)" style="stroke:#000000; stroke-linecap:round; stroke-linejoin:round; stroke-width:2; stroke-opacity:0.1; fill:none" points="86.9921,923.186 2352.76,923.186 "/>
<polyline clip-path="url(#clip282)" style="stroke:#000000; stroke-linecap:round; stroke-linejoin:round; stroke-width:2; stroke-opacity:0.1; fill:none" points="86.9921,645.13 2352.76,645.13 "/>
<polyline clip-path="url(#clip282)" style="stroke:#000000; stroke-linecap:round; stroke-linejoin:round; stroke-width:2; stroke-opacity:0.1; fill:none" points="86.9921,367.074 2352.76,367.074 "/>
<polyline clip-path="url(#clip282)" style="stroke:#000000; stroke-linecap:round; stroke-linejoin:round; stroke-width:2; stroke-opacity:0.1; fill:none" points="86.9921,89.0175 2352.76,89.0175 "/>
<polyline clip-path="url(#clip280)" style="stroke:#000000; stroke-linecap:round; stroke-linejoin:round; stroke-width:4; stroke-opacity:1; fill:none" points="86.9921,1521.01 86.9921,47.2441 "/>
<polyline clip-path="url(#clip280)" style="stroke:#000000; stroke-linecap:round; stroke-linejoin:round; stroke-width:4; stroke-opacity:1; fill:none" points="86.9921,1479.3 105.89,1479.3 "/>
<polyline clip-path="url(#clip280)" style="stroke:#000000; stroke-linecap:round; stroke-linejoin:round; stroke-width:4; stroke-opacity:1; fill:none" points="86.9921,1201.24 105.89,1201.24 "/>
<polyline clip-path="url(#clip280)" style="stroke:#000000; stroke-linecap:round; stroke-linejoin:round; stroke-width:4; stroke-opacity:1; fill:none" points="86.9921,923.186 105.89,923.186 "/>
<polyline clip-path="url(#clip280)" style="stroke:#000000; stroke-linecap:round; stroke-linejoin:round; stroke-width:4; stroke-opacity:1; fill:none" points="86.9921,645.13 105.89,645.13 "/>
<polyline clip-path="url(#clip280)" style="stroke:#000000; stroke-linecap:round; stroke-linejoin:round; stroke-width:4; stroke-opacity:1; fill:none" points="86.9921,367.074 105.89,367.074 "/>
<polyline clip-path="url(#clip280)" style="stroke:#000000; stroke-linecap:round; stroke-linejoin:round; stroke-width:4; stroke-opacity:1; fill:none" points="86.9921,89.0175 105.89,89.0175 "/>
<path clip-path="url(#clip280)" d="M-6.18349 1465.1 Q-9.79459 1465.1 -11.6233 1468.66 Q-13.4288 1472.2 -13.4288 1479.33 Q-13.4288 1486.44 -11.6233 1490 Q-9.79459 1493.55 -6.18349 1493.55 Q-2.54925 1493.55 -0.743708 1490 Q1.08499 1486.44 1.08499 1479.33 Q1.08499 1472.2 -0.743708 1468.66 Q-2.54925 1465.1 -6.18349 1465.1 M-6.18349 1461.39 Q-0.37334 1461.39 2.6822 1466 Q5.76089 1470.58 5.76089 1479.33 Q5.76089 1488.06 2.6822 1492.67 Q-0.37334 1497.25 -6.18349 1497.25 Q-11.9936 1497.25 -15.0723 1492.67 Q-18.1279 1488.06 -18.1279 1479.33 Q-18.1279 1470.58 -15.0723 1466 Q-11.9936 1461.39 -6.18349 1461.39 Z" fill="#000000" fill-rule="nonzero" fill-opacity="1" /><path clip-path="url(#clip280)" d="M13.9784 1490.7 L18.8627 1490.7 L18.8627 1496.58 L13.9784 1496.58 L13.9784 1490.7 Z" fill="#000000" fill-rule="nonzero" fill-opacity="1" /><path clip-path="url(#clip280)" d="M39.0477 1465.1 Q35.4367 1465.1 33.608 1468.66 Q31.8024 1472.2 31.8024 1479.33 Q31.8024 1486.44 33.608 1490 Q35.4367 1493.55 39.0477 1493.55 Q42.682 1493.55 44.4875 1490 Q46.3162 1486.44 46.3162 1479.33 Q46.3162 1472.2 44.4875 1468.66 Q42.682 1465.1 39.0477 1465.1 M39.0477 1461.39 Q44.8579 1461.39 47.9134 1466 Q50.9921 1470.58 50.9921 1479.33 Q50.9921 1488.06 47.9134 1492.67 Q44.8579 1497.25 39.0477 1497.25 Q33.2376 1497.25 30.1589 1492.67 Q27.1034 1488.06 27.1034 1479.33 Q27.1034 1470.58 30.1589 1466 Q33.2376 1461.39 39.0477 1461.39 Z" fill="#000000" fill-rule="nonzero" fill-opacity="1" /><path clip-path="url(#clip280)" d="M-4.95665 1187.04 Q-8.56774 1187.04 -10.3964 1190.61 Q-12.202 1194.15 -12.202 1201.28 Q-12.202 1208.38 -10.3964 1211.95 Q-8.56774 1215.49 -4.95665 1215.49 Q-1.32241 1215.49 0.483137 1211.95 Q2.31183 1208.38 2.31183 1201.28 Q2.31183 1194.15 0.483137 1190.61 Q-1.32241 1187.04 -4.95665 1187.04 M-4.95665 1183.34 Q0.853506 1183.34 3.90904 1187.94 Q6.98773 1192.53 6.98773 1201.28 Q6.98773 1210 3.90904 1214.61 Q0.853506 1219.19 -4.95665 1219.19 Q-10.7668 1219.19 -13.8455 1214.61 Q-16.901 1210 -16.901 1201.28 Q-16.901 1192.53 -13.8455 1187.94 Q-10.7668 1183.34 -4.95665 1183.34 Z" fill="#000000" fill-rule="nonzero" fill-opacity="1" /><path clip-path="url(#clip280)" d="M15.2053 1212.64 L20.0895 1212.64 L20.0895 1218.52 L15.2053 1218.52 L15.2053 1212.64 Z" fill="#000000" fill-rule="nonzero" fill-opacity="1" /><path clip-path="url(#clip280)" d="M31.0848 1214.59 L38.7237 1214.59 L38.7237 1188.22 L30.4135 1189.89 L30.4135 1185.63 L38.6774 1183.96 L43.3533 1183.96 L43.3533 1214.59 L50.9921 1214.59 L50.9921 1218.52 L31.0848 1218.52 L31.0848 1214.59 Z" fill="#000000" fill-rule="nonzero" fill-opacity="1" /><path clip-path="url(#clip280)" d="M-4.58628 908.984 Q-8.19737 908.984 -10.0261 912.549 Q-11.8316 916.091 -11.8316 923.22 Q-11.8316 930.327 -10.0261 933.892 Q-8.19737 937.433 -4.58628 937.433 Q-0.95204 937.433 0.853506 933.892 Q2.6822 930.327 2.6822 923.22 Q2.6822 916.091 0.853506 912.549 Q-0.95204 908.984 -4.58628 908.984 M-4.58628 905.281 Q1.22387 905.281 4.27941 909.887 Q7.3581 914.47 7.3581 923.22 Q7.3581 931.947 4.27941 936.554 Q1.22387 941.137 -4.58628 941.137 Q-10.3964 941.137 -13.4751 936.554 Q-16.5307 931.947 -16.5307 923.22 Q-16.5307 914.47 -13.4751 909.887 Q-10.3964 905.281 -4.58628 905.281 Z" fill="#000000" fill-rule="nonzero" fill-opacity="1" /><path clip-path="url(#clip280)" d="M15.5756 934.586 L20.4599 934.586 L20.4599 940.466 L15.5756 940.466 L15.5756 934.586 Z" fill="#000000" fill-rule="nonzero" fill-opacity="1" /><path clip-path="url(#clip280)" d="M34.6728 936.53 L50.9921 936.53 L50.9921 940.466 L29.0478 940.466 L29.0478 936.53 Q31.7098 933.776 36.2931 929.146 Q40.8996 924.493 42.0801 923.151 Q44.3255 920.628 45.2051 918.892 Q46.1079 917.132 46.1079 915.443 Q46.1079 912.688 44.1635 910.952 Q42.2422 909.216 39.1403 909.216 Q36.9413 909.216 34.4876 909.98 Q32.057 910.743 29.2793 912.294 L29.2793 907.572 Q32.1033 906.438 34.557 905.859 Q37.0107 905.281 39.0477 905.281 Q44.4181 905.281 47.6125 907.966 Q50.8069 910.651 50.8069 915.142 Q50.8069 917.271 49.9968 919.193 Q49.2097 921.091 47.1033 923.683 Q46.5246 924.355 43.4227 927.572 Q40.3209 930.767 34.6728 936.53 Z" fill="#000000" fill-rule="nonzero" fill-opacity="1" /><path clip-path="url(#clip280)" d="M-5.53535 630.928 Q-9.14644 630.928 -10.9751 634.493 Q-12.7807 638.035 -12.7807 645.164 Q-12.7807 652.271 -10.9751 655.835 Q-9.14644 659.377 -5.53535 659.377 Q-1.90111 659.377 -0.0955632 655.835 Q1.73313 652.271 1.73313 645.164 Q1.73313 638.035 -0.0955632 634.493 Q-1.90111 630.928 -5.53535 630.928 M-5.53535 627.225 Q0.274805 627.225 3.33034 631.831 Q6.40903 636.414 6.40903 645.164 Q6.40903 653.891 3.33034 658.498 Q0.274805 663.081 -5.53535 663.081 Q-11.3455 663.081 -14.4242 658.498 Q-17.4797 653.891 -17.4797 645.164 Q-17.4797 636.414 -14.4242 631.831 Q-11.3455 627.225 -5.53535 627.225 Z" fill="#000000" fill-rule="nonzero" fill-opacity="1" /><path clip-path="url(#clip280)" d="M14.6266 656.53 L19.5108 656.53 L19.5108 662.41 L14.6266 662.41 L14.6266 656.53 Z" fill="#000000" fill-rule="nonzero" fill-opacity="1" /><path clip-path="url(#clip280)" d="M43.8625 643.775 Q47.219 644.493 49.094 646.761 Q50.9921 649.03 50.9921 652.363 Q50.9921 657.479 47.4736 660.28 Q43.9551 663.081 37.4737 663.081 Q35.2978 663.081 32.983 662.641 Q30.6913 662.224 28.2376 661.368 L28.2376 656.854 Q30.1821 657.988 32.4969 658.567 Q34.8117 659.146 37.3348 659.146 Q41.7329 659.146 44.0246 657.41 Q46.3394 655.673 46.3394 652.363 Q46.3394 649.308 44.1866 647.595 Q42.057 645.859 38.2376 645.859 L34.2098 645.859 L34.2098 642.016 L38.4227 642.016 Q41.8718 642.016 43.7005 640.65 Q45.5292 639.262 45.5292 636.669 Q45.5292 634.007 43.6311 632.595 Q41.7561 631.16 38.2376 631.16 Q36.3163 631.16 34.1172 631.576 Q31.9182 631.993 29.2793 632.873 L29.2793 628.706 Q31.9413 627.965 34.2561 627.595 Q36.5941 627.225 38.6542 627.225 Q43.9783 627.225 47.0801 629.655 Q50.1819 632.062 50.1819 636.183 Q50.1819 639.053 48.5384 641.044 Q46.8949 643.011 43.8625 643.775 Z" fill="#000000" fill-rule="nonzero" fill-opacity="1" /><path clip-path="url(#clip280)" d="M-6.6696 352.872 Q-10.2807 352.872 -12.1094 356.437 Q-13.9149 359.979 -13.9149 367.108 Q-13.9149 374.215 -12.1094 377.779 Q-10.2807 381.321 -6.6696 381.321 Q-3.03536 381.321 -1.22982 377.779 Q0.598877 374.215 0.598877 367.108 Q0.598877 359.979 -1.22982 356.437 Q-3.03536 352.872 -6.6696 352.872 M-6.6696 349.169 Q-0.859448 349.169 2.19609 353.775 Q5.27478 358.358 5.27478 367.108 Q5.27478 375.835 2.19609 380.442 Q-0.859448 385.025 -6.6696 385.025 Q-12.4798 385.025 -15.5584 380.442 Q-18.614 375.835 -18.614 367.108 Q-18.614 358.358 -15.5584 353.775 Q-12.4798 349.169 -6.6696 349.169 Z" fill="#000000" fill-rule="nonzero" fill-opacity="1" /><path clip-path="url(#clip280)" d="M13.4923 378.474 L18.3766 378.474 L18.3766 384.354 L13.4923 384.354 L13.4923 378.474 Z" fill="#000000" fill-rule="nonzero" fill-opacity="1" /><path clip-path="url(#clip280)" d="M41.4088 353.868 L29.6034 372.317 L41.4088 372.317 L41.4088 353.868 M40.182 349.794 L46.0616 349.794 L46.0616 372.317 L50.9921 372.317 L50.9921 376.205 L46.0616 376.205 L46.0616 384.354 L41.4088 384.354 L41.4088 376.205 L25.8071 376.205 L25.8071 371.692 L40.182 349.794 Z" fill="#000000" fill-rule="nonzero" fill-opacity="1" /><path clip-path="url(#clip280)" d="M-5.18813 74.8162 Q-8.79922 74.8162 -10.6279 78.381 Q-12.4335 81.9226 -12.4335 89.0522 Q-12.4335 96.1587 -10.6279 99.7235 Q-8.79922 103.265 -5.18813 103.265 Q-1.55389 103.265 0.251657 99.7235 Q2.08035 96.1587 2.08035 89.0522 Q2.08035 81.9226 0.251657 78.381 Q-1.55389 74.8162 -5.18813 74.8162 M-5.18813 71.1125 Q0.622026 71.1125 3.67756 75.719 Q6.75625 80.3023 6.75625 89.0522 Q6.75625 97.779 3.67756 102.385 Q0.622026 106.969 -5.18813 106.969 Q-10.9983 106.969 -14.077 102.385 Q-17.1325 97.779 -17.1325 89.0522 Q-17.1325 80.3023 -14.077 75.719 Q-10.9983 71.1125 -5.18813 71.1125 Z" fill="#000000" fill-rule="nonzero" fill-opacity="1" /><path clip-path="url(#clip280)" d="M14.9738 100.418 L19.858 100.418 L19.858 106.298 L14.9738 106.298 L14.9738 100.418 Z" fill="#000000" fill-rule="nonzero" fill-opacity="1" /><path clip-path="url(#clip280)" d="M30.0895 71.7375 L48.4458 71.7375 L48.4458 75.6727 L34.3718 75.6727 L34.3718 84.1448 Q35.3904 83.7976 36.4089 83.6356 Q37.4274 83.4504 38.4459 83.4504 Q44.2329 83.4504 47.6125 86.6217 Q50.9921 89.793 50.9921 95.2096 Q50.9921 100.788 47.5199 103.89 Q44.0477 106.969 37.7283 106.969 Q35.5524 106.969 33.2839 106.598 Q31.0385 106.228 28.6311 105.487 L28.6311 100.788 Q30.7145 101.923 32.9367 102.478 Q35.1589 103.034 37.6357 103.034 Q41.6403 103.034 43.9783 100.927 Q46.3162 98.8207 46.3162 95.2096 Q46.3162 91.5985 43.9783 89.492 Q41.6403 87.3856 37.6357 87.3856 Q35.7607 87.3856 33.8857 87.8022 Q32.0339 88.2189 30.0895 89.0985 L30.0895 71.7375 Z" fill="#000000" fill-rule="nonzero" fill-opacity="1" /><polyline clip-path="url(#clip282)" style="stroke:#009af9; stroke-linecap:round; stroke-linejoin:round; stroke-width:4; stroke-opacity:1; fill:none" points="151.118,1479.3 151.118,88.9544 "/>
<polyline clip-path="url(#clip282)" style="stroke:#009af9; stroke-linecap:round; stroke-linejoin:round; stroke-width:4; stroke-opacity:1; fill:none" points="240.181,1479.3 240.181,1478.67 "/>
<polyline clip-path="url(#clip282)" style="stroke:#009af9; stroke-linecap:round; stroke-linejoin:round; stroke-width:4; stroke-opacity:1; fill:none" points="329.244,1479.3 329.244,1476.14 "/>
<polyline clip-path="url(#clip282)" style="stroke:#009af9; stroke-linecap:round; stroke-linejoin:round; stroke-width:4; stroke-opacity:1; fill:none" points="418.307,1479.3 418.307,1468.78 "/>
<polyline clip-path="url(#clip282)" style="stroke:#009af9; stroke-linecap:round; stroke-linejoin:round; stroke-width:4; stroke-opacity:1; fill:none" points="507.37,1479.3 507.37,1453 "/>
<polyline clip-path="url(#clip282)" style="stroke:#009af9; stroke-linecap:round; stroke-linejoin:round; stroke-width:4; stroke-opacity:1; fill:none" points="596.433,1479.3 596.433,1426.7 "/>
<polyline clip-path="url(#clip282)" style="stroke:#009af9; stroke-linecap:round; stroke-linejoin:round; stroke-width:4; stroke-opacity:1; fill:none" points="685.496,1479.3 685.496,1391.63 "/>
<polyline clip-path="url(#clip282)" style="stroke:#009af9; stroke-linecap:round; stroke-linejoin:round; stroke-width:4; stroke-opacity:1; fill:none" points="774.559,1479.3 774.559,1354.06 "/>
<polyline clip-path="url(#clip282)" style="stroke:#009af9; stroke-linecap:round; stroke-linejoin:round; stroke-width:4; stroke-opacity:1; fill:none" points="863.622,1479.3 863.622,1322.75 "/>
<polyline clip-path="url(#clip282)" style="stroke:#009af9; stroke-linecap:round; stroke-linejoin:round; stroke-width:4; stroke-opacity:1; fill:none" points="952.685,1479.3 952.685,1305.36 "/>
<polyline clip-path="url(#clip282)" style="stroke:#009af9; stroke-linecap:round; stroke-linejoin:round; stroke-width:4; stroke-opacity:1; fill:none" points="1041.75,1479.3 1041.75,1305.36 "/>
<polyline clip-path="url(#clip282)" style="stroke:#009af9; stroke-linecap:round; stroke-linejoin:round; stroke-width:4; stroke-opacity:1; fill:none" points="1130.81,1479.3 1130.81,1321.17 "/>
<polyline clip-path="url(#clip282)" style="stroke:#009af9; stroke-linecap:round; stroke-linejoin:round; stroke-width:4; stroke-opacity:1; fill:none" points="1219.87,1479.3 1219.87,1347.53 "/>
<polyline clip-path="url(#clip282)" style="stroke:#009af9; stroke-linecap:round; stroke-linejoin:round; stroke-width:4; stroke-opacity:1; fill:none" points="1308.94,1479.3 1308.94,1377.94 "/>
<polyline clip-path="url(#clip282)" style="stroke:#009af9; stroke-linecap:round; stroke-linejoin:round; stroke-width:4; stroke-opacity:1; fill:none" points="1398,1479.3 1398,1406.9 "/>
<polyline clip-path="url(#clip282)" style="stroke:#009af9; stroke-linecap:round; stroke-linejoin:round; stroke-width:4; stroke-opacity:1; fill:none" points="1487.06,1479.3 1487.06,1431.03 "/>
<polyline clip-path="url(#clip282)" style="stroke:#009af9; stroke-linecap:round; stroke-linejoin:round; stroke-width:4; stroke-opacity:1; fill:none" points="1576.13,1479.3 1576.13,1449.13 "/>
<polyline clip-path="url(#clip282)" style="stroke:#009af9; stroke-linecap:round; stroke-linejoin:round; stroke-width:4; stroke-opacity:1; fill:none" points="1665.19,1479.3 1665.19,1461.55 "/>
<polyline clip-path="url(#clip282)" style="stroke:#009af9; stroke-linecap:round; stroke-linejoin:round; stroke-width:4; stroke-opacity:1; fill:none" points="1754.25,1479.3 1754.25,1469.44 "/>
<polyline clip-path="url(#clip282)" style="stroke:#009af9; stroke-linecap:round; stroke-linejoin:round; stroke-width:4; stroke-opacity:1; fill:none" points="1843.32,1479.3 1843.32,1474.11 "/>
<polyline clip-path="url(#clip282)" style="stroke:#009af9; stroke-linecap:round; stroke-linejoin:round; stroke-width:4; stroke-opacity:1; fill:none" points="1932.38,1479.3 1932.38,1476.7 "/>
<polyline clip-path="url(#clip282)" style="stroke:#009af9; stroke-linecap:round; stroke-linejoin:round; stroke-width:4; stroke-opacity:1; fill:none" points="2021.44,1479.3 2021.44,1478.06 "/>
<polyline clip-path="url(#clip282)" style="stroke:#009af9; stroke-linecap:round; stroke-linejoin:round; stroke-width:4; stroke-opacity:1; fill:none" points="2110.5,1479.3 2110.5,1478.74 "/>
<polyline clip-path="url(#clip282)" style="stroke:#009af9; stroke-linecap:round; stroke-linejoin:round; stroke-width:4; stroke-opacity:1; fill:none" points="2199.57,1479.3 2199.57,1479.05 "/>
<polyline clip-path="url(#clip282)" style="stroke:#009af9; stroke-linecap:round; stroke-linejoin:round; stroke-width:4; stroke-opacity:1; fill:none" points="2288.63,1479.3 2288.63,1479.2 "/>
</svg>
