<?xml version="1.0" encoding="utf-8"?>
<svg xmlns="http://www.w3.org/2000/svg" xmlns:xlink="http://www.w3.org/1999/xlink" width="600" height="400" viewBox="0 0 2400 1600">
<defs>
  <clipPath id="clip310">
    <rect x="0" y="0" width="2400" height="1600"/>
  </clipPath>
</defs>
<path clip-path="url(#clip310)" d="M0 1600 L2400 1600 L2400 0 L0 0  Z" fill="#ffffff" fill-rule="evenodd" fill-opacity="1"/>
<defs>
  <clipPath id="clip311">
    <rect x="480" y="0" width="1681" height="1600"/>
  </clipPath>
</defs>
<path clip-path="url(#clip310)" d="M86.9921 1521.01 L2352.76 1521.01 L2352.76 47.2441 L86.9921 47.2441  Z" fill="#ffffff" fill-rule="evenodd" fill-opacity="1"/>
<defs>
  <clipPath id="clip312">
    <rect x="86" y="47" width="2267" height="1475"/>
  </clipPath>
</defs>
<polyline clip-path="url(#clip312)" style="stroke:#000000; stroke-linecap:round; stroke-linejoin:round; stroke-width:2; stroke-opacity:0.1; fill:none" points="211.613,1521.01 211.613,47.2441 "/>
<polyline clip-path="url(#clip312)" style="stroke:#000000; stroke-linecap:round; stroke-linejoin:round; stroke-width:2; stroke-opacity:0.1; fill:none" points="614.918,1521.01 614.918,47.2441 "/>
<polyline clip-path="url(#clip312)" style="stroke:#000000; stroke-linecap:round; stroke-linejoin:round; stroke-width:2; stroke-opacity:0.1; fill:none" points="1018.22,1521.01 1018.22,47.2441 "/>
<polyline clip-path="url(#clip312)" style="stroke:#000000; stroke-linecap:round; stroke-linejoin:round; stroke-width:2; stroke-opacity:0.1; fill:none" points="1421.53,1521.01 1421.53,47.2441 "/>
<polyline clip-path="url(#clip312)" style="stroke:#000000; stroke-linecap:round; stroke-linejoin:round; stroke-width:2; stroke-opacity:0.1; fill:none" points="1824.83,1521.01 1824.83,47.2441 "/>
<polyline clip-path="url(#clip312)" style="stroke:#000000; stroke-linecap:round; stroke-linejoin:round; stroke-width:2; stroke-opacity:0.1; fill:none" points="2228.13,1521.01 2228.13,47.2441 "/>
<polyline clip-path="url(#clip310)" style="stroke:#000000; stroke-linecap:round; stroke-linejoin:round; stroke-width:4; stroke-opacity:1; fill:none" points="86.9921,1521.01 2352.76,1521.01 "/>
<polyline clip-path="url(#clip310)" style="stroke:#000000; stroke-linecap:round; stroke-linejoin:round; stroke-width:4; stroke-opacity:1; fill:none" points="211.613,1521.01 211.613,1502.11 "/>
<polyline clip-path="url(#clip310)" style="stroke:#000000; stroke-linecap:round; stroke-linejoin:round; stroke-width:4; stroke-opacity:1; fill:none" points="614.918,1521.01 614.918,1502.11 "/>
<polyline clip-path="url(#clip310)" style="stroke:#000000; stroke-linecap:round; stroke-linejoin:round; stroke-width:4; stroke-opacity:1; fill:none" points="1018.22,1521.01 1018.22,1502.11 "/>
<polyline clip-path="url(#clip310)" style="stroke:#000000; stroke-linecap:round; stroke-linejoin:round; stroke-width:4; stroke-opacity:1; fill:none" points="1421.53,1521.01 1421.53,1502.11 "/>
<polyline clip-path="url(#clip310)" style="stroke:#000000; stroke-linecap:round; stroke-linejoin:round; stroke-width:4; stroke-opacity:1; fill:none" points="1824.83,1521.01 1824.83,1502.11 "/>
<polyline clip-path="url(#clip310)" style="stroke:#000000; stroke-linecap:round; stroke-linejoin:round; stroke-width:4; stroke-opacity:1; fill:none" points="2228.13,1521.01 2228.13,1502.11 "/>
<path clip-path="url(#clip310)" d="M211.613 1551.93 Q208.002 1551.93 206.173 1555.49 Q204.368 1559.03 204.368 1566.16 Q204.368 1573.27 206.173 1576.83 Q208.002 1580.38 211.613 1580.38 Q215.247 1580.38 217.053 1576.83 Q218.882 1573.27 218.882 1566.16 Q218.882 1559.03 217.053 1555.49 Q215.247 1551.93 211.613 1551.93 M211.613 1548.22 Q217.423 1548.22 220.479 1552.83 Q223.558 1557.41 223.558 1566.16 Q223.558 1574.89 220.479 1579.5 Q217.423 1584.08 211.613 1584.08 Q205.803 1584.08 202.724 1579.5 Q199.669 1574.89 199.669 1566.16 Q199.669 1557.41 202.724 1552.83 Q205.803 1548.22 211.613 1548.22 Z" fill="#000000" fill-rule="nonzero" fill-opacity="1" /><path clip-path="url(#clip310)" d="M605.195 1548.85 L623.552 1548.85 L623.552 1552.78 L609.478 1552.78 L609.478 1561.26 Q610.496 1560.91 611.515 1560.75 Q612.533 1560.56 613.552 1560.56 Q619.339 1560.56 622.718 1563.73 Q626.098 1566.9 626.098 1572.32 Q626.098 1577.9 622.626 1581 Q619.154 1584.08 612.834 1584.08 Q610.658 1584.08 608.39 1583.71 Q606.144 1583.34 603.737 1582.6 L603.737 1577.9 Q605.82 1579.03 608.043 1579.59 Q610.265 1580.14 612.742 1580.14 Q616.746 1580.14 619.084 1578.04 Q621.422 1575.93 621.422 1572.32 Q621.422 1568.71 619.084 1566.6 Q616.746 1564.5 612.742 1564.5 Q610.867 1564.5 608.992 1564.91 Q607.14 1565.33 605.195 1566.21 L605.195 1548.85 Z" fill="#000000" fill-rule="nonzero" fill-opacity="1" /><path clip-path="url(#clip310)" d="M992.909 1579.47 L1000.55 1579.47 L1000.55 1553.11 L992.238 1554.77 L992.238 1550.51 L1000.5 1548.85 L1005.18 1548.85 L1005.18 1579.47 L1012.82 1579.47 L1012.82 1583.41 L992.909 1583.41 L992.909 1579.47 Z" fill="#000000" fill-rule="nonzero" fill-opacity="1" /><path clip-path="url(#clip310)" d="M1032.26 1551.93 Q1028.65 1551.93 1026.82 1555.49 Q1025.02 1559.03 1025.02 1566.16 Q1025.02 1573.27 1026.82 1576.83 Q1028.65 1580.38 1032.26 1580.38 Q1035.9 1580.38 1037.7 1576.83 Q1039.53 1573.27 1039.53 1566.16 Q1039.53 1559.03 1037.7 1555.49 Q1035.9 1551.93 1032.26 1551.93 M1032.26 1548.22 Q1038.07 1548.22 1041.13 1552.83 Q1044.21 1557.41 1044.21 1566.16 Q1044.21 1574.89 1041.13 1579.5 Q1038.07 1584.08 1032.26 1584.08 Q1026.45 1584.08 1023.37 1579.5 Q1020.32 1574.89 1020.32 1566.16 Q1020.32 1557.41 1023.37 1552.83 Q1026.45 1548.22 1032.26 1548.22 Z" fill="#000000" fill-rule="nonzero" fill-opacity="1" /><path clip-path="url(#clip310)" d="M1396.71 1579.47 L1404.35 1579.47 L1404.35 1553.11 L1396.04 1554.77 L1396.04 1550.51 L1404.3 1548.85 L1408.98 1548.85 L1408.98 1579.47 L1416.62 1579.47 L1416.62 1583.41 L1396.71 1583.41 L1396.71 1579.47 Z" fill="#000000" fill-rule="nonzero" fill-opacity="1" /><path clip-path="url(#clip310)" d="M1426.11 1548.85 L1444.47 1548.85 L1444.47 1552.78 L1430.39 1552.78 L1430.39 1561.26 Q1431.41 1560.91 1432.43 1560.75 Q1433.45 1560.56 1434.47 1560.56 Q1440.25 1560.56 1443.63 1563.73 Q1447.01 1566.9 1447.01 1572.32 Q1447.01 1577.9 1443.54 1581 Q1440.07 1584.08 1433.75 1584.08 Q1431.57 1584.08 1429.3 1583.71 Q1427.06 1583.34 1424.65 1582.6 L1424.65 1577.9 Q1426.73 1579.03 1428.96 1579.59 Q1431.18 1580.14 1433.66 1580.14 Q1437.66 1580.14 1440 1578.04 Q1442.34 1575.93 1442.34 1572.32 Q1442.34 1568.71 1440 1566.6 Q1437.66 1564.5 1433.66 1564.5 Q1431.78 1564.5 1429.91 1564.91 Q1428.05 1565.33 1426.11 1566.21 L1426.11 1548.85 Z" fill="#000000" fill-rule="nonzero" fill-opacity="1" /><path clip-path="url(#clip310)" d="M1803.6 1579.47 L1819.92 1579.47 L1819.92 1583.41 L1797.98 1583.41 L1797.98 1579.47 Q1800.64 1576.72 1805.22 1572.09 Q1809.83 1567.44 1811.01 1566.09 Q1813.26 1563.57 1814.14 1561.83 Q1815.04 1560.07 1815.04 1558.38 Q1815.04 1555.63 1813.09 1553.89 Q1811.17 1552.16 1808.07 1552.16 Q1805.87 1552.16 1803.42 1552.92 Q1800.99 1553.69 1798.21 1555.24 L1798.21 1550.51 Q1801.03 1549.38 1803.49 1548.8 Q1805.94 1548.22 1807.98 1548.22 Q1813.35 1548.22 1816.54 1550.91 Q1819.74 1553.59 1819.74 1558.08 Q1819.74 1560.21 1818.93 1562.13 Q1818.14 1564.03 1816.03 1566.63 Q1815.46 1567.3 1812.35 1570.51 Q1809.25 1573.71 1803.6 1579.47 Z" fill="#000000" fill-rule="nonzero" fill-opacity="1" /><path clip-path="url(#clip310)" d="M1839.74 1551.93 Q1836.13 1551.93 1834.3 1555.49 Q1832.49 1559.03 1832.49 1566.16 Q1832.49 1573.27 1834.3 1576.83 Q1836.13 1580.38 1839.74 1580.38 Q1843.37 1580.38 1845.18 1576.83 Q1847.01 1573.27 1847.01 1566.16 Q1847.01 1559.03 1845.18 1555.49 Q1843.37 1551.93 1839.74 1551.93 M1839.74 1548.22 Q1845.55 1548.22 1848.6 1552.83 Q1851.68 1557.41 1851.68 1566.16 Q1851.68 1574.89 1848.6 1579.5 Q1845.55 1584.08 1839.74 1584.08 Q1833.93 1584.08 1830.85 1579.5 Q1827.79 1574.89 1827.79 1566.16 Q1827.79 1557.41 1830.85 1552.83 Q1833.93 1548.22 1839.74 1548.22 Z" fill="#000000" fill-rule="nonzero" fill-opacity="1" /><path clip-path="url(#clip310)" d="M2207.41 1579.47 L2223.73 1579.47 L2223.73 1583.41 L2201.78 1583.41 L2201.78 1579.47 Q2204.44 1576.72 2209.03 1572.09 Q2213.63 1567.44 2214.81 1566.09 Q2217.06 1563.57 2217.94 1561.83 Q2218.84 1560.07 2218.84 1558.38 Q2218.84 1555.63 2216.9 1553.89 Q2214.98 1552.16 2211.87 1552.16 Q2209.67 1552.16 2207.22 1552.92 Q2204.79 1553.69 2202.01 1555.24 L2202.01 1550.51 Q2204.84 1549.38 2207.29 1548.8 Q2209.74 1548.22 2211.78 1548.22 Q2217.15 1548.22 2220.35 1550.91 Q2223.54 1553.59 2223.54 1558.08 Q2223.54 1560.21 2222.73 1562.13 Q2221.94 1564.03 2219.84 1566.63 Q2219.26 1567.3 2216.16 1570.51 Q2213.05 1573.71 2207.41 1579.47 Z" fill="#000000" fill-rule="nonzero" fill-opacity="1" /><path clip-path="url(#clip310)" d="M2233.59 1548.85 L2251.94 1548.85 L2251.94 1552.78 L2237.87 1552.78 L2237.87 1561.26 Q2238.89 1560.91 2239.91 1560.75 Q2240.92 1560.56 2241.94 1560.56 Q2247.73 1560.56 2251.11 1563.73 Q2254.49 1566.9 2254.49 1572.32 Q2254.49 1577.9 2251.02 1581 Q2247.54 1584.08 2241.23 1584.08 Q2239.05 1584.08 2236.78 1583.71 Q2234.54 1583.34 2232.13 1582.6 L2232.13 1577.9 Q2234.21 1579.03 2236.43 1579.59 Q2238.66 1580.14 2241.13 1580.14 Q2245.14 1580.14 2247.48 1578.04 Q2249.81 1575.93 2249.81 1572.32 Q2249.81 1568.71 2247.48 1566.6 Q2245.14 1564.5 2241.13 1564.5 Q2239.26 1564.5 2237.38 1564.91 Q2235.53 1565.33 2233.59 1566.21 L2233.59 1548.85 Z" fill="#000000" fill-rule="nonzero" fill-opacity="1" /><polyline clip-path="url(#clip312)" style="stroke:#000000; stroke-linecap:round; stroke-linejoin:round; stroke-width:2; stroke-opacity:0.1; fill:none" points="86.9921,1479.3 2352.76,1479.3 "/>
<polyline clip-path="url(#clip312)" style="stroke:#000000; stroke-linecap:round; stroke-linejoin:round; stroke-width:2; stroke-opacity:0.1; fill:none" points="86.9921,1167.18 2352.76,1167.18 "/>
<polyline clip-path="url(#clip312)" style="stroke:#000000; stroke-linecap:round; stroke-linejoin:round; stroke-width:2; stroke-opacity:0.1; fill:none" points="86.9921,855.055 2352.76,855.055 "/>
<polyline clip-path="url(#clip312)" style="stroke:#000000; stroke-linecap:round; stroke-linejoin:round; stroke-width:2; stroke-opacity:0.1; fill:none" points="86.9921,542.934 2352.76,542.934 "/>
<polyline clip-path="url(#clip312)" style="stroke:#000000; stroke-linecap:round; stroke-linejoin:round; stroke-width:2; stroke-opacity:0.1; fill:none" points="86.9921,230.813 2352.76,230.813 "/>
<polyline clip-path="url(#clip310)" style="stroke:#000000; stroke-linecap:round; stroke-linejoin:round; stroke-width:4; stroke-opacity:1; fill:none" points="86.9921,1521.01 86.9921,47.2441 "/>
<polyline clip-path="url(#clip310)" style="stroke:#000000; stroke-linecap:round; stroke-linejoin:round; stroke-width:4; stroke-opacity:1; fill:none" points="86.9921,1479.3 105.89,1479.3 "/>
<polyline clip-path="url(#clip310)" style="stroke:#000000; stroke-linecap:round; stroke-linejoin:round; stroke-width:4; stroke-opacity:1; fill:none" points="86.9921,1167.18 105.89,1167.18 "/>
<polyline clip-path="url(#clip310)" style="stroke:#000000; stroke-linecap:round; stroke-linejoin:round; stroke-width:4; stroke-opacity:1; fill:none" points="86.9921,855.055 105.89,855.055 "/>
<polyline clip-path="url(#clip310)" style="stroke:#000000; stroke-linecap:round; stroke-linejoin:round; stroke-width:4; stroke-opacity:1; fill:none" points="86.9921,542.934 105.89,542.934 "/>
<polyline clip-path="url(#clip310)" style="stroke:#000000; stroke-linecap:round; stroke-linejoin:round; stroke-width:4; stroke-opacity:1; fill:none" points="86.9921,230.813 105.89,230.813 "/>
<path clip-path="url(#clip310)" d="M39.0477 1465.1 Q35.4367 1465.1 33.608 1468.66 Q31.8024 1472.2 31.8024 1479.33 Q31.8024 1486.44 33.608 1490 Q35.4367 1493.55 39.0477 1493.55 Q42.682 1493.55 44.4875 1490 Q46.3162 1486.44 46.3162 1479.33 Q46.3162 1472.2 44.4875 1468.66 Q42.682 1465.1 39.0477 1465.1 M39.0477 1461.39 Q44.8579 1461.39 47.9134 1466 Q50.9921 1470.58 50.9921 1479.33 Q50.9921 1488.06 47.9134 1492.67 Q44.8579 1497.25 39.0477 1497.25 Q33.2376 1497.25 30.1589 1492.67 Q27.1034 1488.06 27.1034 1479.33 Q27.1034 1470.58 30.1589 1466 Q33.2376 1461.39 39.0477 1461.39 Z" fill="#000000" fill-rule="nonzero" fill-opacity="1" /><path clip-path="url(#clip310)" d="M-57.4101 1180.52 L-41.0907 1180.52 L-41.0907 1184.46 L-63.035 1184.46 L-63.035 1180.52 Q-60.373 1177.77 -55.7897 1173.14 Q-51.1833 1168.48 -50.0027 1167.14 Q-47.7573 1164.62 -46.8777 1162.88 Q-45.9749 1161.12 -45.9749 1159.43 Q-45.9749 1156.68 -47.9194 1154.94 Q-49.8407 1153.21 -52.9425 1153.21 Q-55.1416 1153.21 -57.5953 1153.97 Q-60.0258 1154.73 -62.8036 1156.29 L-62.8036 1151.56 Q-59.9795 1150.43 -57.5258 1149.85 Q-55.0721 1149.27 -53.0351 1149.27 Q-47.6648 1149.27 -44.4703 1151.96 Q-41.2759 1154.64 -41.2759 1159.13 Q-41.2759 1161.26 -42.0861 1163.18 Q-42.8731 1165.08 -44.9796 1167.67 Q-45.5583 1168.35 -48.6601 1171.56 Q-51.762 1174.76 -57.4101 1180.52 Z" fill="#000000" fill-rule="nonzero" fill-opacity="1" /><path clip-path="url(#clip310)" d="M-21.276 1152.98 Q-24.8871 1152.98 -26.7158 1156.54 Q-28.5213 1160.08 -28.5213 1167.21 Q-28.5213 1174.32 -26.7158 1177.88 Q-24.8871 1181.42 -21.276 1181.42 Q-17.6418 1181.42 -15.8362 1177.88 Q-14.0075 1174.32 -14.0075 1167.21 Q-14.0075 1160.08 -15.8362 1156.54 Q-17.6418 1152.98 -21.276 1152.98 M-21.276 1149.27 Q-15.4659 1149.27 -12.4103 1153.88 Q-9.33162 1158.46 -9.33162 1167.21 Q-9.33162 1175.94 -12.4103 1180.54 Q-15.4659 1185.13 -21.276 1185.13 Q-27.0862 1185.13 -30.1648 1180.54 Q-33.2204 1175.94 -33.2204 1167.21 Q-33.2204 1158.46 -30.1648 1153.88 Q-27.0862 1149.27 -21.276 1149.27 Z" fill="#000000" fill-rule="nonzero" fill-opacity="1" /><path clip-path="url(#clip310)" d="M8.88587 1152.98 Q5.27478 1152.98 3.44608 1156.54 Q1.64054 1160.08 1.64054 1167.21 Q1.64054 1174.32 3.44608 1177.88 Q5.27478 1181.42 8.88587 1181.42 Q12.5201 1181.42 14.3257 1177.88 Q16.1543 1174.32 16.1543 1167.21 Q16.1543 1160.08 14.3257 1156.54 Q12.5201 1152.98 8.88587 1152.98 M8.88587 1149.27 Q14.696 1149.27 17.7516 1153.88 Q20.8303 1158.46 20.8303 1167.21 Q20.8303 1175.94 17.7516 1180.54 Q14.696 1185.13 8.88587 1185.13 Q3.07572 1185.13 -0.00297114 1180.54 Q-3.05851 1175.94 -3.05851 1167.21 Q-3.05851 1158.46 -0.00297114 1153.88 Q3.07572 1149.27 8.88587 1149.27 Z" fill="#000000" fill-rule="nonzero" fill-opacity="1" /><path clip-path="url(#clip310)" d="M39.0477 1152.98 Q35.4367 1152.98 33.608 1156.54 Q31.8024 1160.08 31.8024 1167.21 Q31.8024 1174.32 33.608 1177.88 Q35.4367 1181.42 39.0477 1181.42 Q42.682 1181.42 44.4875 1177.88 Q46.3162 1174.32 46.3162 1167.21 Q46.3162 1160.08 44.4875 1156.54 Q42.682 1152.98 39.0477 1152.98 M39.0477 1149.27 Q44.8579 1149.27 47.9134 1153.88 Q50.9921 1158.46 50.9921 1167.21 Q50.9921 1175.94 47.9134 1180.54 Q44.8579 1185.13 39.0477 1185.13 Q33.2376 1185.13 30.1589 1180.54 Q27.1034 1175.94 27.1034 1167.21 Q27.1034 1158.46 30.1589 1153.88 Q33.2376 1149.27 39.0477 1149.27 Z" fill="#000000" fill-rule="nonzero" fill-opacity="1" /><path clip-path="url(#clip310)" d="M-48.5907 841.85 L-60.3962 860.299 L-48.5907 860.299 L-48.5907 841.85 M-49.8175 837.775 L-43.9379 837.775 L-43.9379 860.299 L-39.0074 860.299 L-39.0074 864.187 L-43.9379 864.187 L-43.9379 872.335 L-48.5907 872.335 L-48.5907 864.187 L-64.1924 864.187 L-64.1924 859.674 L-49.8175 837.775 Z" fill="#000000" fill-rule="nonzero" fill-opacity="1" /><path clip-path="url(#clip310)" d="M-21.276 840.854 Q-24.8871 840.854 -26.7158 844.419 Q-28.5213 847.961 -28.5213 855.09 Q-28.5213 862.197 -26.7158 865.761 Q-24.8871 869.303 -21.276 869.303 Q-17.6418 869.303 -15.8362 865.761 Q-14.0075 862.197 -14.0075 855.09 Q-14.0075 847.961 -15.8362 844.419 Q-17.6418 840.854 -21.276 840.854 M-21.276 837.15 Q-15.4659 837.15 -12.4103 841.757 Q-9.33162 846.34 -9.33162 855.09 Q-9.33162 863.817 -12.4103 868.423 Q-15.4659 873.007 -21.276 873.007 Q-27.0862 873.007 -30.1648 868.423 Q-33.2204 863.817 -33.2204 855.09 Q-33.2204 846.34 -30.1648 841.757 Q-27.0862 837.15 -21.276 837.15 Z" fill="#000000" fill-rule="nonzero" fill-opacity="1" /><path clip-path="url(#clip310)" d="M8.88587 840.854 Q5.27478 840.854 3.44608 844.419 Q1.64054 847.961 1.64054 855.09 Q1.64054 862.197 3.44608 865.761 Q5.27478 869.303 8.88587 869.303 Q12.5201 869.303 14.3257 865.761 Q16.1543 862.197 16.1543 855.09 Q16.1543 847.961 14.3257 844.419 Q12.5201 840.854 8.88587 840.854 M8.88587 837.15 Q14.696 837.15 17.7516 841.757 Q20.8303 846.34 20.8303 855.09 Q20.8303 863.817 17.7516 868.423 Q14.696 873.007 8.88587 873.007 Q3.07572 873.007 -0.00297114 868.423 Q-3.05851 863.817 -3.05851 855.09 Q-3.05851 846.34 -0.00297114 841.757 Q3.07572 837.15 8.88587 837.15 Z" fill="#000000" fill-rule="nonzero" fill-opacity="1" /><path clip-path="url(#clip310)" d="M39.0477 840.854 Q35.4367 840.854 33.608 844.419 Q31.8024 847.961 31.8024 855.09 Q31.8024 862.197 33.608 865.761 Q35.4367 869.303 39.0477 869.303 Q42.682 869.303 44.4875 865.761 Q46.3162 862.197 46.3162 855.09 Q46.3162 847.961 44.4875 844.419 Q42.682 840.854 39.0477 840.854 M39.0477 837.15 Q44.8579 837.15 47.9134 841.757 Q50.9921 846.34 50.9921 855.09 Q50.9921 863.817 47.9134 868.423 Q44.8579 873.007 39.0477 873.007 Q33.2376 873.007 30.1589 868.423 Q27.1034 863.817 27.1034 855.09 Q27.1034 846.34 30.1589 841.757 Q33.2376 837.15 39.0477 837.15 Z" fill="#000000" fill-rule="nonzero" fill-opacity="1" /><path clip-path="url(#clip310)" d="M-50.8592 541.071 Q-54.0073 541.071 -55.8592 543.224 Q-57.6878 545.377 -57.6878 549.127 Q-57.6878 552.853 -55.8592 555.029 Q-54.0073 557.182 -50.8592 557.182 Q-47.711 557.182 -45.8824 555.029 Q-44.0305 552.853 -44.0305 549.127 Q-44.0305 545.377 -45.8824 543.224 Q-47.711 541.071 -50.8592 541.071 M-41.5768 526.418 L-41.5768 530.678 Q-43.3361 529.844 -45.1416 529.404 Q-46.924 528.965 -48.6833 528.965 Q-53.3129 528.965 -55.7666 532.09 Q-58.1971 535.215 -58.5443 541.534 Q-57.1786 539.52 -55.1184 538.455 Q-53.0582 537.367 -50.5814 537.367 Q-45.3731 537.367 -42.3639 540.539 Q-39.3315 543.687 -39.3315 549.127 Q-39.3315 554.451 -42.4796 557.668 Q-45.6277 560.886 -50.8592 560.886 Q-56.8545 560.886 -60.0258 556.302 Q-63.1971 551.696 -63.1971 542.969 Q-63.1971 534.775 -59.3082 529.914 Q-55.4193 525.029 -48.8685 525.029 Q-47.1092 525.029 -45.3268 525.377 Q-43.5213 525.724 -41.5768 526.418 Z" fill="#000000" fill-rule="nonzero" fill-opacity="1" /><path clip-path="url(#clip310)" d="M-21.276 528.733 Q-24.8871 528.733 -26.7158 532.298 Q-28.5213 535.84 -28.5213 542.969 Q-28.5213 550.076 -26.7158 553.64 Q-24.8871 557.182 -21.276 557.182 Q-17.6418 557.182 -15.8362 553.64 Q-14.0075 550.076 -14.0075 542.969 Q-14.0075 535.84 -15.8362 532.298 Q-17.6418 528.733 -21.276 528.733 M-21.276 525.029 Q-15.4659 525.029 -12.4103 529.636 Q-9.33162 534.219 -9.33162 542.969 Q-9.33162 551.696 -12.4103 556.302 Q-15.4659 560.886 -21.276 560.886 Q-27.0862 560.886 -30.1648 556.302 Q-33.2204 551.696 -33.2204 542.969 Q-33.2204 534.219 -30.1648 529.636 Q-27.0862 525.029 -21.276 525.029 Z" fill="#000000" fill-rule="nonzero" fill-opacity="1" /><path clip-path="url(#clip310)" d="M8.88587 528.733 Q5.27478 528.733 3.44608 532.298 Q1.64054 535.84 1.64054 542.969 Q1.64054 550.076 3.44608 553.64 Q5.27478 557.182 8.88587 557.182 Q12.5201 557.182 14.3257 553.64 Q16.1543 550.076 16.1543 542.969 Q16.1543 535.84 14.3257 532.298 Q12.5201 528.733 8.88587 528.733 M8.88587 525.029 Q14.696 525.029 17.7516 529.636 Q20.8303 534.219 20.8303 542.969 Q20.8303 551.696 17.7516 556.302 Q14.696 560.886 8.88587 560.886 Q3.07572 560.886 -0.00297114 556.302 Q-3.05851 551.696 -3.05851 542.969 Q-3.05851 534.219 -0.00297114 529.636 Q3.07572 525.029 8.88587 525.029 Z" fill="#000000" fill-rule="nonzero" fill-opacity="1" /><path clip-path="url(#clip310)" d="M39.0477 528.733 Q35.4367 528.733 33.608 532.298 Q31.8024 535.84 31.8024 542.969 Q31.8024 550.076 33.608 553.64 Q35.4367 557.182 39.0477 557.182 Q42.682 557.182 44.4875 553.64 Q46.3162 550.076 46.3162 542.969 Q46.3162 535.84 44.4875 532.298 Q42.682 528.733 39.0477 528.733 M39.0477 525.029 Q44.8579 525.029 47.9134 529.636 Q50.9921 534.219 50.9921 542.969 Q50.9921 551.696 47.9134 556.302 Q44.8579 560.886 39.0477 560.886 Q33.2376 560.886 30.1589 556.302 Q27.1034 551.696 27.1034 542.969 Q27.1034 534.219 30.1589 529.636 Q33.2376 525.029 39.0477 525.029 Z" fill="#000000" fill-rule="nonzero" fill-opacity="1" /><path clip-path="url(#clip310)" d="M-51.4379 231.681 Q-54.7712 231.681 -56.6925 233.464 Q-58.5906 235.246 -58.5906 238.371 Q-58.5906 241.496 -56.6925 243.279 Q-54.7712 245.061 -51.4379 245.061 Q-48.1046 245.061 -46.1833 243.279 Q-44.262 241.473 -44.262 238.371 Q-44.262 235.246 -46.1833 233.464 Q-48.0814 231.681 -51.4379 231.681 M-56.1138 229.691 Q-59.123 228.95 -60.8128 226.89 Q-62.4795 224.83 -62.4795 221.867 Q-62.4795 217.723 -59.5397 215.316 Q-56.5767 212.908 -51.4379 212.908 Q-46.2759 212.908 -43.3361 215.316 Q-40.3963 217.723 -40.3963 221.867 Q-40.3963 224.83 -42.0861 226.89 Q-43.7527 228.95 -46.7388 229.691 Q-43.3592 230.478 -41.4842 232.769 Q-39.5861 235.061 -39.5861 238.371 Q-39.5861 243.394 -42.6648 246.08 Q-45.7203 248.765 -51.4379 248.765 Q-57.1554 248.765 -60.2341 246.08 Q-63.2897 243.394 -63.2897 238.371 Q-63.2897 235.061 -61.3915 232.769 Q-59.4934 230.478 -56.1138 229.691 M-57.8267 222.307 Q-57.8267 224.992 -56.1601 226.496 Q-54.4703 228.001 -51.4379 228.001 Q-48.4286 228.001 -46.7388 226.496 Q-45.0259 224.992 -45.0259 222.307 Q-45.0259 219.621 -46.7388 218.117 Q-48.4286 216.612 -51.4379 216.612 Q-54.4703 216.612 -56.1601 218.117 Q-57.8267 219.621 -57.8267 222.307 Z" fill="#000000" fill-rule="nonzero" fill-opacity="1" /><path clip-path="url(#clip310)" d="M-21.276 216.612 Q-24.8871 216.612 -26.7158 220.177 Q-28.5213 223.719 -28.5213 230.848 Q-28.5213 237.955 -26.7158 241.519 Q-24.8871 245.061 -21.276 245.061 Q-17.6418 245.061 -15.8362 241.519 Q-14.0075 237.955 -14.0075 230.848 Q-14.0075 223.719 -15.8362 220.177 Q-17.6418 216.612 -21.276 216.612 M-21.276 212.908 Q-15.4659 212.908 -12.4103 217.515 Q-9.33162 222.098 -9.33162 230.848 Q-9.33162 239.575 -12.4103 244.181 Q-15.4659 248.765 -21.276 248.765 Q-27.0862 248.765 -30.1648 244.181 Q-33.2204 239.575 -33.2204 230.848 Q-33.2204 222.098 -30.1648 217.515 Q-27.0862 212.908 -21.276 212.908 Z" fill="#000000" fill-rule="nonzero" fill-opacity="1" /><path clip-path="url(#clip310)" d="M8.88587 216.612 Q5.27478 216.612 3.44608 220.177 Q1.64054 223.719 1.64054 230.848 Q1.64054 237.955 3.44608 241.519 Q5.27478 245.061 8.88587 245.061 Q12.5201 245.061 14.3257 241.519 Q16.1543 237.955 16.1543 230.848 Q16.1543 223.719 14.3257 220.177 Q12.5201 216.612 8.88587 216.612 M8.88587 212.908 Q14.696 212.908 17.7516 217.515 Q20.8303 222.098 20.8303 230.848 Q20.8303 239.575 17.7516 244.181 Q14.696 248.765 8.88587 248.765 Q3.07572 248.765 -0.00297114 244.181 Q-3.05851 239.575 -3.05851 230.848 Q-3.05851 222.098 -0.00297114 217.515 Q3.07572 212.908 8.88587 212.908 Z" fill="#000000" fill-rule="nonzero" fill-opacity="1" /><path clip-path="url(#clip310)" d="M39.0477 216.612 Q35.4367 216.612 33.608 220.177 Q31.8024 223.719 31.8024 230.848 Q31.8024 237.955 33.608 241.519 Q35.4367 245.061 39.0477 245.061 Q42.682 245.061 44.4875 241.519 Q46.3162 237.955 46.3162 230.848 Q46.3162 223.719 44.4875 220.177 Q42.682 216.612 39.0477 216.612 M39.0477 212.908 Q44.8579 212.908 47.9134 217.515 Q50.9921 222.098 50.9921 230.848 Q50.9921 239.575 47.9134 244.181 Q44.8579 248.765 39.0477 248.765 Q33.2376 248.765 30.1589 244.181 Q27.1034 239.575 27.1034 230.848 Q27.1034 222.098 30.1589 217.515 Q33.2376 212.908 39.0477 212.908 Z" fill="#000000" fill-rule="nonzero" fill-opacity="1" /><path clip-path="url(#clip312)" d="M211.613 88.9544 L211.613 1479.3 L292.274 1479.3 L292.274 88.9544 L211.613 88.9544 L211.613 88.9544  Z" fill="#009af9" fill-rule="evenodd" fill-opacity="1"/>
<polyline clip-path="url(#clip312)" style="stroke:#000000; stroke-linecap:round; stroke-linejoin:round; stroke-width:4; stroke-opacity:1; fill:none" points="211.613,88.9544 211.613,1479.3 292.274,1479.3 292.274,88.9544 211.613,88.9544 "/>
<path clip-path="url(#clip312)" d="M292.274 1478.83 L292.274 1479.3 L372.935 1479.3 L372.935 1478.83 L292.274 1478.83 L292.274 1478.83  Z" fill="#009af9" fill-rule="evenodd" fill-opacity="1"/>
<polyline clip-path="url(#clip312)" style="stroke:#000000; stroke-linecap:round; stroke-linejoin:round; stroke-width:4; stroke-opacity:1; fill:none" points="292.274,1478.83 292.274,1479.3 372.935,1479.3 372.935,1478.83 292.274,1478.83 "/>
<path clip-path="url(#clip312)" d="M372.935 1476.8 L372.935 1479.3 L453.596 1479.3 L453.596 1476.8 L372.935 1476.8 L372.935 1476.8  Z" fill="#009af9" fill-rule="evenodd" fill-opacity="1"/>
<polyline clip-path="url(#clip312)" style="stroke:#000000; stroke-linecap:round; stroke-linejoin:round; stroke-width:4; stroke-opacity:1; fill:none" points="372.935,1476.8 372.935,1479.3 453.596,1479.3 453.596,1476.8 372.935,1476.8 "/>
<path clip-path="url(#clip312)" d="M453.596 1468.69 L453.596 1479.3 L534.257 1479.3 L534.257 1468.69 L453.596 1468.69 L453.596 1468.69  Z" fill="#009af9" fill-rule="evenodd" fill-opacity="1"/>
<polyline clip-path="url(#clip312)" style="stroke:#000000; stroke-linecap:round; stroke-linejoin:round; stroke-width:4; stroke-opacity:1; fill:none" points="453.596,1468.69 453.596,1479.3 534.257,1479.3 534.257,1468.69 453.596,1468.69 "/>
<path clip-path="url(#clip312)" d="M534.257 1449.18 L534.257 1479.3 L614.918 1479.3 L614.918 1449.18 L534.257 1449.18 L534.257 1449.18  Z" fill="#009af9" fill-rule="evenodd" fill-opacity="1"/>
<polyline clip-path="url(#clip312)" style="stroke:#000000; stroke-linecap:round; stroke-linejoin:round; stroke-width:4; stroke-opacity:1; fill:none" points="534.257,1449.18 534.257,1479.3 614.918,1479.3 614.918,1449.18 534.257,1449.18 "/>
<path clip-path="url(#clip312)" d="M614.918 1426.24 L614.918 1479.3 L695.578 1479.3 L695.578 1426.24 L614.918 1426.24 L614.918 1426.24  Z" fill="#009af9" fill-rule="evenodd" fill-opacity="1"/>
<polyline clip-path="url(#clip312)" style="stroke:#000000; stroke-linecap:round; stroke-linejoin:round; stroke-width:4; stroke-opacity:1; fill:none" points="614.918,1426.24 614.918,1479.3 695.578,1479.3 695.578,1426.24 614.918,1426.24 "/>
<path clip-path="url(#clip312)" d="M695.578 1393.15 L695.578 1479.3 L776.239 1479.3 L776.239 1393.15 L695.578 1393.15 L695.578 1393.15  Z" fill="#009af9" fill-rule="evenodd" fill-opacity="1"/>
<polyline clip-path="url(#clip312)" style="stroke:#000000; stroke-linecap:round; stroke-linejoin:round; stroke-width:4; stroke-opacity:1; fill:none" points="695.578,1393.15 695.578,1479.3 776.239,1479.3 776.239,1393.15 695.578,1393.15 "/>
<path clip-path="url(#clip312)" d="M776.239 1351.02 L776.239 1479.3 L856.9 1479.3 L856.9 1351.02 L776.239 1351.02 L776.239 1351.02  Z" fill="#009af9" fill-rule="evenodd" fill-opacity="1"/>
<polyline clip-path="url(#clip312)" style="stroke:#000000; stroke-linecap:round; stroke-linejoin:round; stroke-width:4; stroke-opacity:1; fill:none" points="776.239,1351.02 776.239,1479.3 856.9,1479.3 856.9,1351.02 776.239,1351.02 "/>
<path clip-path="url(#clip312)" d="M856.9 1310.6 L856.9 1479.3 L937.561 1479.3 L937.561 1310.6 L856.9 1310.6 L856.9 1310.6  Z" fill="#009af9" fill-rule="evenodd" fill-opacity="1"/>
<polyline clip-path="url(#clip312)" style="stroke:#000000; stroke-linecap:round; stroke-linejoin:round; stroke-width:4; stroke-opacity:1; fill:none" points="856.9,1310.6 856.9,1479.3 937.561,1479.3 937.561,1310.6 856.9,1310.6 "/>
<path clip-path="url(#clip312)" d="M937.561 1306.69 L937.561 1479.3 L1018.22 1479.3 L1018.22 1306.69 L937.561 1306.69 L937.561 1306.69  Z" fill="#009af9" fill-rule="evenodd" fill-opacity="1"/>
<polyline clip-path="url(#clip312)" style="stroke:#000000; stroke-linecap:round; stroke-linejoin:round; stroke-width:4; stroke-opacity:1; fill:none" points="937.561,1306.69 937.561,1479.3 1018.22,1479.3 1018.22,1306.69 937.561,1306.69 "/>
<path clip-path="url(#clip312)" d="M1018.22 1308.72 L1018.22 1479.3 L1098.88 1479.3 L1098.88 1308.72 L1018.22 1308.72 L1018.22 1308.72  Z" fill="#009af9" fill-rule="evenodd" fill-opacity="1"/>
<polyline clip-path="url(#clip312)" style="stroke:#000000; stroke-linecap:round; stroke-linejoin:round; stroke-width:4; stroke-opacity:1; fill:none" points="1018.22,1308.72 1018.22,1479.3 1098.88,1479.3 1098.88,1308.72 1018.22,1308.72 "/>
<path clip-path="url(#clip312)" d="M1098.88 1330.26 L1098.88 1479.3 L1179.54 1479.3 L1179.54 1330.26 L1098.88 1330.26 L1098.88 1330.26  Z" fill="#009af9" fill-rule="evenodd" fill-opacity="1"/>
<polyline clip-path="url(#clip312)" style="stroke:#000000; stroke-linecap:round; stroke-linejoin:round; stroke-width:4; stroke-opacity:1; fill:none" points="1098.88,1330.26 1098.88,1479.3 1179.54,1479.3 1179.54,1330.26 1098.88,1330.26 "/>
<path clip-path="url(#clip312)" d="M1179.54 1346.33 L1179.54 1479.3 L1260.2 1479.3 L1260.2 1346.33 L1179.54 1346.33 L1179.54 1346.33  Z" fill="#009af9" fill-rule="evenodd" fill-opacity="1"/>
<polyline clip-path="url(#clip312)" style="stroke:#000000; stroke-linecap:round; stroke-linejoin:round; stroke-width:4; stroke-opacity:1; fill:none" points="1179.54,1346.33 1179.54,1479.3 1260.2,1479.3 1260.2,1346.33 1179.54,1346.33 "/>
<path clip-path="url(#clip312)" d="M1260.2 1375.83 L1260.2 1479.3 L1340.87 1479.3 L1340.87 1375.83 L1260.2 1375.83 L1260.2 1375.83  Z" fill="#009af9" fill-rule="evenodd" fill-opacity="1"/>
<polyline clip-path="url(#clip312)" style="stroke:#000000; stroke-linecap:round; stroke-linejoin:round; stroke-width:4; stroke-opacity:1; fill:none" points="1260.2,1375.83 1260.2,1479.3 1340.87,1479.3 1340.87,1375.83 1260.2,1375.83 "/>
<path clip-path="url(#clip312)" d="M1340.87 1404.39 L1340.87 1479.3 L1421.53 1479.3 L1421.53 1404.39 L1340.87 1404.39 L1340.87 1404.39  Z" fill="#009af9" fill-rule="evenodd" fill-opacity="1"/>
<polyline clip-path="url(#clip312)" style="stroke:#000000; stroke-linecap:round; stroke-linejoin:round; stroke-width:4; stroke-opacity:1; fill:none" points="1340.87,1404.39 1340.87,1479.3 1421.53,1479.3 1421.53,1404.39 1340.87,1404.39 "/>
<path clip-path="url(#clip312)" d="M1421.53 1432.79 L1421.53 1479.3 L1502.19 1479.3 L1502.19 1432.79 L1421.53 1432.79 L1421.53 1432.79  Z" fill="#009af9" fill-rule="evenodd" fill-opacity="1"/>
<polyline clip-path="url(#clip312)" style="stroke:#000000; stroke-linecap:round; stroke-linejoin:round; stroke-width:4; stroke-opacity:1; fill:none" points="1421.53,1432.79 1421.53,1479.3 1502.19,1479.3 1502.19,1432.79 1421.53,1432.79 "/>
<path clip-path="url(#clip312)" d="M1502.19 1443.56 L1502.19 1479.3 L1582.85 1479.3 L1582.85 1443.56 L1502.19 1443.56 L1502.19 1443.56  Z" fill="#009af9" fill-rule="evenodd" fill-opacity="1"/>
<polyline clip-path="url(#clip312)" style="stroke:#000000; stroke-linecap:round; stroke-linejoin:round; stroke-width:4; stroke-opacity:1; fill:none" points="1502.19,1443.56 1502.19,1479.3 1582.85,1479.3 1582.85,1443.56 1502.19,1443.56 "/>
<path clip-path="url(#clip312)" d="M1582.85 1461.35 L1582.85 1479.3 L1663.51 1479.3 L1663.51 1461.35 L1582.85 1461.35 L1582.85 1461.35  Z" fill="#009af9" fill-rule="evenodd" fill-opacity="1"/>
<polyline clip-path="url(#clip312)" style="stroke:#000000; stroke-linecap:round; stroke-linejoin:round; stroke-width:4; stroke-opacity:1; fill:none" points="1582.85,1461.35 1582.85,1479.3 1663.51,1479.3 1663.51,1461.35 1582.85,1461.35 "/>
<path clip-path="url(#clip312)" d="M1663.51 1468.22 L1663.51 1479.3 L1744.17 1479.3 L1744.17 1468.22 L1663.51 1468.22 L1663.51 1468.22  Z" fill="#009af9" fill-rule="evenodd" fill-opacity="1"/>
<polyline clip-path="url(#clip312)" style="stroke:#000000; stroke-linecap:round; stroke-linejoin:round; stroke-width:4; stroke-opacity:1; fill:none" points="1663.51,1468.22 1663.51,1479.3 1744.17,1479.3 1744.17,1468.22 1663.51,1468.22 "/>
<path clip-path="url(#clip312)" d="M1744.17 1473.68 L1744.17 1479.3 L1824.83 1479.3 L1824.83 1473.68 L1744.17 1473.68 L1744.17 1473.68  Z" fill="#009af9" fill-rule="evenodd" fill-opacity="1"/>
<polyline clip-path="url(#clip312)" style="stroke:#000000; stroke-linecap:round; stroke-linejoin:round; stroke-width:4; stroke-opacity:1; fill:none" points="1744.17,1473.68 1744.17,1479.3 1824.83,1479.3 1824.83,1473.68 1744.17,1473.68 "/>
<path clip-path="url(#clip312)" d="M1824.83 1475.71 L1824.83 1479.3 L1905.49 1479.3 L1905.49 1475.71 L1824.83 1475.71 L1824.83 1475.71  Z" fill="#009af9" fill-rule="evenodd" fill-opacity="1"/>
<polyline clip-path="url(#clip312)" style="stroke:#000000; stroke-linecap:round; stroke-linejoin:round; stroke-width:4; stroke-opacity:1; fill:none" points="1824.83,1475.71 1824.83,1479.3 1905.49,1479.3 1905.49,1475.71 1824.83,1475.71 "/>
<path clip-path="url(#clip312)" d="M1905.49 1478.52 L1905.49 1479.3 L1986.15 1479.3 L1986.15 1478.52 L1905.49 1478.52 L1905.49 1478.52  Z" fill="#009af9" fill-rule="evenodd" fill-opacity="1"/>
<polyline clip-path="url(#clip312)" style="stroke:#000000; stroke-linecap:round; stroke-linejoin:round; stroke-width:4; stroke-opacity:1; fill:none" points="1905.49,1478.52 1905.49,1479.3 1986.15,1479.3 1986.15,1478.52 1905.49,1478.52 "/>
<path clip-path="url(#clip312)" d="M1986.15 1478.83 L1986.15 1479.3 L2066.81 1479.3 L2066.81 1478.83 L1986.15 1478.83 L1986.15 1478.83  Z" fill="#009af9" fill-rule="evenodd" fill-opacity="1"/>
<polyline clip-path="url(#clip312)" style="stroke:#000000; stroke-linecap:round; stroke-linejoin:round; stroke-width:4; stroke-opacity:1; fill:none" points="1986.15,1478.83 1986.15,1479.3 2066.81,1479.3 2066.81,1478.83 1986.15,1478.83 "/>
<path clip-path="url(#clip312)" d="M2066.81 1478.99 L2066.81 1479.3 L2147.47 1479.3 L2147.47 1478.99 L2066.81 1478.99 L2066.81 1478.99  Z" fill="#009af9" fill-rule="evenodd" fill-opacity="1"/>
<polyline clip-path="url(#clip312)" style="stroke:#000000; stroke-linecap:round; stroke-linejoin:round; stroke-width:4; stroke-opacity:1; fill:none" points="2066.81,1478.99 2066.81,1479.3 2147.47,1479.3 2147.47,1478.99 2066.81,1478.99 "/>
<path clip-path="url(#clip312)" d="M2147.47 1478.99 L2147.47 1479.3 L2228.13 1479.3 L2228.13 1478.99 L2147.47 1478.99 L2147.47 1478.99  Z" fill="#009af9" fill-rule="evenodd" fill-opacity="1"/>
<polyline clip-path="url(#clip312)" style="stroke:#000000; stroke-linecap:round; stroke-linejoin:round; stroke-width:4; stroke-opacity:1; fill:none" points="2147.47,1478.99 2147.47,1479.3 2228.13,1479.3 2228.13,1478.99 2147.47,1478.99 "/>
<circle clip-path="url(#clip312)" style="fill:#009af9; stroke:none; fill-opacity:0" cx="251.944" cy="88.9544" r="2"/>
<circle clip-path="url(#clip312)" style="fill:#009af9; stroke:none; fill-opacity:0" cx="332.604" cy="1478.83" r="2"/>
<circle clip-path="url(#clip312)" style="fill:#009af9; stroke:none; fill-opacity:0" cx="413.265" cy="1476.8" r="2"/>
<circle clip-path="url(#clip312)" style="fill:#009af9; stroke:none; fill-opacity:0" cx="493.926" cy="1468.69" r="2"/>
<circle clip-path="url(#clip312)" style="fill:#009af9; stroke:none; fill-opacity:0" cx="574.587" cy="1449.18" r="2"/>
<circle clip-path="url(#clip312)" style="fill:#009af9; stroke:none; fill-opacity:0" cx="655.248" cy="1426.24" r="2"/>
<circle clip-path="url(#clip312)" style="fill:#009af9; stroke:none; fill-opacity:0" cx="735.909" cy="1393.15" r="2"/>
<circle clip-path="url(#clip312)" style="fill:#009af9; stroke:none; fill-opacity:0" cx="816.57" cy="1351.02" r="2"/>
<circle clip-path="url(#clip312)" style="fill:#009af9; stroke:none; fill-opacity:0" cx="897.231" cy="1310.6" r="2"/>
<circle clip-path="url(#clip312)" style="fill:#009af9; stroke:none; fill-opacity:0" cx="977.891" cy="1306.69" r="2"/>
<circle clip-path="url(#clip312)" style="fill:#009af9; stroke:none; fill-opacity:0" cx="1058.55" cy="1308.72" r="2"/>
<circle clip-path="url(#clip312)" style="fill:#009af9; stroke:none; fill-opacity:0" cx="1139.21" cy="1330.26" r="2"/>
<circle clip-path="url(#clip312)" style="fill:#009af9; stroke:none; fill-opacity:0" cx="1219.87" cy="1346.33" r="2"/>
<circle clip-path="url(#clip312)" style="fill:#009af9; stroke:none; fill-opacity:0" cx="1300.53" cy="1375.83" r="2"/>
<circle clip-path="url(#clip312)" style="fill:#009af9; stroke:none; fill-opacity:0" cx="1381.2" cy="1404.39" r="2"/>
<circle clip-path="url(#clip312)" style="fill:#009af9; stroke:none; fill-opacity:0" cx="1461.86" cy="1432.79" r="2"/>
<circle clip-path="url(#clip312)" style="fill:#009af9; stroke:none; fill-opacity:0" cx="1542.52" cy="1443.56" r="2"/>
<circle clip-path="url(#clip312)" style="fill:#009af9; stroke:none; fill-opacity:0" cx="1623.18" cy="1461.35" r="2"/>
<circle clip-path="url(#clip312)" style="fill:#009af9; stroke:none; fill-opacity:0" cx="1703.84" cy="1468.22" r="2"/>
<circle clip-path="url(#clip312)" style="fill:#009af9; stroke:none; fill-opacity:0" cx="1784.5" cy="1473.68" r="2"/>
<circle clip-path="url(#clip312)" style="fill:#009af9; stroke:none; fill-opacity:0" cx="1865.16" cy="1475.71" r="2"/>
<circle clip-path="url(#clip312)" style="fill:#009af9; stroke:none; fill-opacity:0" cx="1945.82" cy="1478.52" r="2"/>
<circle clip-path="url(#clip312)" style="fill:#009af9; stroke:none; fill-opacity:0" cx="2026.48" cy="1478.83" r="2"/>
<circle clip-path="url(#clip312)" style="fill:#009af9; stroke:none; fill-opacity:0" cx="2107.14" cy="1478.99" r="2"/>
<circle clip-path="url(#clip312)" style="fill:#009af9; stroke:none; fill-opacity:0" cx="2187.8" cy="1478.99" r="2"/>
<path clip-path="url(#clip310)" d="M1998.22 200.05 L2277.23 200.05 L2277.23 96.3696 L1998.22 96.3696  Z" fill="#ffffff" fill-rule="evenodd" fill-opacity="1"/>
<polyline clip-path="url(#clip310)" style="stroke:#000000; stroke-linecap:round; stroke-linejoin:round; stroke-width:4; stroke-opacity:1; fill:none" points="1998.22,200.05 2277.23,200.05 2277.23,96.3696 1998.22,96.3696 1998.22,200.05 "/>
<path clip-path="url(#clip310)" d="M2023.4 168.946 L2174.45 168.946 L2174.45 127.474 L2023.4 127.474 L2023.4 168.946  Z" fill="#009af9" fill-rule="evenodd" fill-opacity="1"/>
<polyline clip-path="url(#clip310)" style="stroke:#000000; stroke-linecap:round; stroke-linejoin:round; stroke-width:4; stroke-opacity:1; fill:none" points="2023.4,168.946 2174.45,168.946 2174.45,127.474 2023.4,127.474 2023.4,168.946 "/>
<path clip-path="url(#clip310)" d="M2213.47 167.897 Q2211.66 172.527 2209.95 173.939 Q2208.24 175.351 2205.37 175.351 L2201.96 175.351 L2201.96 171.786 L2204.46 171.786 Q2206.22 171.786 2207.19 170.952 Q2208.17 170.119 2209.35 167.017 L2210.11 165.073 L2199.63 139.564 L2204.14 139.564 L2212.24 159.841 L2220.34 139.564 L2224.86 139.564 L2213.47 167.897 Z" fill="#000000" fill-rule="nonzero" fill-opacity="1" /><path clip-path="url(#clip310)" d="M2232.15 161.554 L2239.79 161.554 L2239.79 135.189 L2231.48 136.855 L2231.48 132.596 L2239.74 130.93 L2244.42 130.93 L2244.42 161.554 L2252.06 161.554 L2252.06 165.49 L2232.15 165.49 L2232.15 161.554 Z" fill="#000000" fill-rule="nonzero" fill-opacity="1" /></svg>
