<?xml version="1.0" encoding="UTF-8" standalone="no"?>
<!DOCTYPE svg PUBLIC "-//W3C//DTD SVG 1.1//EN"
 "http://www.w3.org/Graphics/SVG/1.1/DTD/svg11.dtd">
<!-- Generated by graphviz version 2.43.0 (0)
 -->
<!-- Title: snakemake_dag Pages: 1 -->
<svg width="5077pt" height="476pt"
 viewBox="0.00 0.00 5076.50 476.00" xmlns="http://www.w3.org/2000/svg" xmlns:xlink="http://www.w3.org/1999/xlink">
<g id="graph0" class="graph" transform="scale(1 1) rotate(0) translate(4 472)">
<title>snakemake_dag</title>
<polygon fill="white" stroke="transparent" points="-4,4 -4,-472 5072.5,-472 5072.5,4 -4,4"/>
<!-- 0 -->
<g id="node1" class="node">
<title>0</title>
<path fill="none" stroke="#88d856" stroke-width="2" d="M2575,-36C2575,-36 2545,-36 2545,-36 2539,-36 2533,-30 2533,-24 2533,-24 2533,-12 2533,-12 2533,-6 2539,0 2545,0 2545,0 2575,0 2575,0 2581,0 2587,-6 2587,-12 2587,-12 2587,-24 2587,-24 2587,-30 2581,-36 2575,-36"/>
<text text-anchor="middle" x="2560" y="-15.5" font-family="sans" font-size="10.00">all</text>
</g>
<!-- 1 -->
<g id="node2" class="node">
<title>1</title>
<path fill="none" stroke="#d86e56" stroke-width="2" d="M130,-108C130,-108 12,-108 12,-108 6,-108 0,-102 0,-96 0,-96 0,-84 0,-84 0,-78 6,-72 12,-72 12,-72 130,-72 130,-72 136,-72 142,-78 142,-84 142,-84 142,-96 142,-96 142,-102 136,-108 130,-108"/>
<text text-anchor="middle" x="71" y="-93" font-family="sans" font-size="10.00">fastqc</text>
<text text-anchor="middle" x="71" y="-82" font-family="sans" font-size="10.00">sample: THYME_607L_hifi</text>
</g>
<!-- 1&#45;&gt;0 -->
<g id="edge1" class="edge">
<title>1&#45;&gt;0</title>
<path fill="none" stroke="grey" stroke-width="2" d="M142.28,-73.8C146.91,-73.11 151.51,-72.49 156,-72 642.79,-18.37 2256.57,-18.53 2522.69,-18.93"/>
<polygon fill="grey" stroke="grey" stroke-width="2" points="2522.97,-22.43 2532.98,-18.94 2522.98,-15.43 2522.97,-22.43"/>
</g>
<!-- 2 -->
<g id="node3" class="node">
<title>2</title>
<path fill="none" stroke="#c6d856" stroke-width="2" d="M278,-396C278,-396 160,-396 160,-396 154,-396 148,-390 148,-384 148,-384 148,-372 148,-372 148,-366 154,-360 160,-360 160,-360 278,-360 278,-360 284,-360 290,-366 290,-372 290,-372 290,-384 290,-384 290,-390 284,-396 278,-396"/>
<text text-anchor="middle" x="219" y="-381" font-family="sans" font-size="10.00">longqc</text>
<text text-anchor="middle" x="219" y="-370" font-family="sans" font-size="10.00">sample: THYME_607L_hifi</text>
</g>
<!-- 2&#45;&gt;0 -->
<g id="edge2" class="edge">
<title>2&#45;&gt;0</title>
<path fill="none" stroke="grey" stroke-width="2" d="M208.85,-359.73C194.49,-333.64 170,-282.2 170,-235 170,-235 170,-235 170,-161 170,-117.45 174.59,-95.9 211,-72 261.42,-38.9 2224.72,-21.72 2522.35,-19.3"/>
<polygon fill="grey" stroke="grey" stroke-width="2" points="2522.65,-22.8 2532.62,-19.21 2522.59,-15.8 2522.65,-22.8"/>
</g>
<!-- 6 -->
<g id="node7" class="node">
<title>6</title>
<path fill="none" stroke="#d87d56" stroke-width="2" d="M297.5,-324C297.5,-324 238.5,-324 238.5,-324 232.5,-324 226.5,-318 226.5,-312 226.5,-312 226.5,-300 226.5,-300 226.5,-294 232.5,-288 238.5,-288 238.5,-288 297.5,-288 297.5,-288 303.5,-288 309.5,-294 309.5,-300 309.5,-300 309.5,-312 309.5,-312 309.5,-318 303.5,-324 297.5,-324"/>
<text text-anchor="middle" x="268" y="-309" font-family="sans" font-size="10.00">filtlong</text>
<text text-anchor="middle" x="268" y="-298" font-family="sans" font-size="10.00">percentage: 5</text>
</g>
<!-- 2&#45;&gt;6 -->
<g id="edge42" class="edge">
<title>2&#45;&gt;6</title>
<path fill="none" stroke="grey" stroke-width="2" d="M231.11,-359.7C236.87,-351.47 243.86,-341.48 250.21,-332.42"/>
<polygon fill="grey" stroke="grey" stroke-width="2" points="253.16,-334.3 256.03,-324.1 247.42,-330.29 253.16,-334.3"/>
</g>
<!-- 3 -->
<g id="node4" class="node">
<title>3</title>
<path fill="none" stroke="#78d856" stroke-width="2" d="M370,-108C370,-108 232,-108 232,-108 226,-108 220,-102 220,-96 220,-96 220,-84 220,-84 220,-78 226,-72 232,-72 232,-72 370,-72 370,-72 376,-72 382,-78 382,-84 382,-84 382,-96 382,-96 382,-102 376,-108 370,-108"/>
<text text-anchor="middle" x="301" y="-87.5" font-family="sans" font-size="10.00">pysamstats_coverage_binned</text>
</g>
<!-- 3&#45;&gt;0 -->
<g id="edge3" class="edge">
<title>3&#45;&gt;0</title>
<path fill="none" stroke="grey" stroke-width="2" d="M382.11,-74.53C389.49,-73.54 396.87,-72.67 404,-72 839.01,-30.95 2272.91,-20.7 2522.72,-19.21"/>
<polygon fill="grey" stroke="grey" stroke-width="2" points="2522.77,-22.71 2532.75,-19.15 2522.73,-15.71 2522.77,-22.71"/>
</g>
<!-- 4 -->
<g id="node5" class="node">
<title>4</title>
<path fill="none" stroke="#5692d8" stroke-width="2" d="M330,-180C330,-180 264,-180 264,-180 258,-180 252,-174 252,-168 252,-168 252,-156 252,-156 252,-150 258,-144 264,-144 264,-144 330,-144 330,-144 336,-144 342,-150 342,-156 342,-156 342,-168 342,-168 342,-174 336,-180 330,-180"/>
<text text-anchor="middle" x="297" y="-159.5" font-family="sans" font-size="10.00">samtools_view</text>
</g>
<!-- 4&#45;&gt;3 -->
<g id="edge39" class="edge">
<title>4&#45;&gt;3</title>
<path fill="none" stroke="grey" stroke-width="2" d="M297.99,-143.7C298.43,-135.98 298.96,-126.71 299.45,-118.11"/>
<polygon fill="grey" stroke="grey" stroke-width="2" points="302.95,-118.29 300.02,-108.1 295.96,-117.89 302.95,-118.29"/>
</g>
<!-- 5 -->
<g id="node6" class="node">
<title>5</title>
<path fill="none" stroke="#56c1d8" stroke-width="2" d="M379.5,-252C379.5,-252 210.5,-252 210.5,-252 204.5,-252 198.5,-246 198.5,-240 198.5,-240 198.5,-228 198.5,-228 198.5,-222 204.5,-216 210.5,-216 210.5,-216 379.5,-216 379.5,-216 385.5,-216 391.5,-222 391.5,-228 391.5,-228 391.5,-240 391.5,-240 391.5,-246 385.5,-252 379.5,-252"/>
<text text-anchor="middle" x="295" y="-231.5" font-family="sans" font-size="10.00">minimap2_bam_sorted_best_5_perc</text>
</g>
<!-- 5&#45;&gt;4 -->
<g id="edge40" class="edge">
<title>5&#45;&gt;4</title>
<path fill="none" stroke="grey" stroke-width="2" d="M295.49,-215.7C295.71,-207.98 295.98,-198.71 296.23,-190.11"/>
<polygon fill="grey" stroke="grey" stroke-width="2" points="299.72,-190.2 296.51,-180.1 292.73,-190 299.72,-190.2"/>
</g>
<!-- 6&#45;&gt;5 -->
<g id="edge41" class="edge">
<title>6&#45;&gt;5</title>
<path fill="none" stroke="grey" stroke-width="2" d="M274.67,-287.7C277.71,-279.81 281.38,-270.3 284.76,-261.55"/>
<polygon fill="grey" stroke="grey" stroke-width="2" points="288.07,-262.69 288.4,-252.1 281.54,-260.17 288.07,-262.69"/>
</g>
<!-- 7 -->
<g id="node8" class="node">
<title>7</title>
<path fill="none" stroke="#d85656" stroke-width="2" d="M1383.5,-468C1383.5,-468 1296.5,-468 1296.5,-468 1290.5,-468 1284.5,-462 1284.5,-456 1284.5,-456 1284.5,-444 1284.5,-444 1284.5,-438 1290.5,-432 1296.5,-432 1296.5,-432 1383.5,-432 1383.5,-432 1389.5,-432 1395.5,-438 1395.5,-444 1395.5,-444 1395.5,-456 1395.5,-456 1395.5,-462 1389.5,-468 1383.5,-468"/>
<text text-anchor="middle" x="1340" y="-447.5" font-family="sans" font-size="10.00">scaffold_infer_gaps</text>
</g>
<!-- 7&#45;&gt;0 -->
<g id="edge4" class="edge">
<title>7&#45;&gt;0</title>
<path fill="none" stroke="grey" stroke-width="2" d="M1284.22,-446.09C1165.44,-438.34 880.37,-411.4 660,-324 541.6,-277.04 365.39,-249.33 437,-144 485.9,-72.06 533.78,-89.45 619,-72 811.9,-32.49 2269.49,-20.95 2522.59,-19.24"/>
<polygon fill="grey" stroke="grey" stroke-width="2" points="2522.77,-22.74 2532.75,-19.17 2522.72,-15.74 2522.77,-22.74"/>
</g>
<!-- 13 -->
<g id="node14" class="node">
<title>13</title>
<path fill="none" stroke="#d8d356" stroke-width="2" d="M2363,-396C2363,-396 2171,-396 2171,-396 2165,-396 2159,-390 2159,-384 2159,-384 2159,-372 2159,-372 2159,-366 2165,-360 2171,-360 2171,-360 2363,-360 2363,-360 2369,-360 2375,-366 2375,-372 2375,-372 2375,-384 2375,-384 2375,-390 2369,-396 2363,-396"/>
<text text-anchor="middle" x="2267" y="-375.5" font-family="sans" font-size="10.00">bwa_index_scaffold_assembly_infergaps</text>
</g>
<!-- 7&#45;&gt;13 -->
<g id="edge46" class="edge">
<title>7&#45;&gt;13</title>
<path fill="none" stroke="grey" stroke-width="2" d="M1395.56,-444.8C1543.06,-433.67 1947.03,-403.16 2148.91,-387.92"/>
<polygon fill="grey" stroke="grey" stroke-width="2" points="2149.25,-391.4 2158.96,-387.16 2148.73,-384.42 2149.25,-391.4"/>
</g>
<!-- 8 -->
<g id="node9" class="node">
<title>8</title>
<path fill="none" stroke="#56d8b1" stroke-width="2" d="M4490,-108C4490,-108 4388,-108 4388,-108 4382,-108 4376,-102 4376,-96 4376,-96 4376,-84 4376,-84 4376,-78 4382,-72 4388,-72 4388,-72 4490,-72 4490,-72 4496,-72 4502,-78 4502,-84 4502,-84 4502,-96 4502,-96 4502,-102 4496,-108 4490,-108"/>
<text text-anchor="middle" x="4439" y="-87.5" font-family="sans" font-size="10.00">run_busco_euk_ragtag</text>
</g>
<!-- 8&#45;&gt;0 -->
<g id="edge5" class="edge">
<title>8&#45;&gt;0</title>
<path fill="none" stroke="grey" stroke-width="2" d="M4375.92,-73.34C4372.91,-72.84 4369.93,-72.38 4367,-72 4007.26,-24.75 2823.31,-19.62 2597.42,-19.07"/>
<polygon fill="grey" stroke="grey" stroke-width="2" points="2597.11,-15.56 2587.1,-19.04 2597.09,-22.56 2597.11,-15.56"/>
</g>
<!-- 9 -->
<g id="node10" class="node">
<title>9</title>
<path fill="none" stroke="#566bd8" stroke-width="2" d="M4697.5,-252C4697.5,-252 4626.5,-252 4626.5,-252 4620.5,-252 4614.5,-246 4614.5,-240 4614.5,-240 4614.5,-228 4614.5,-228 4614.5,-222 4620.5,-216 4626.5,-216 4626.5,-216 4697.5,-216 4697.5,-216 4703.5,-216 4709.5,-222 4709.5,-228 4709.5,-228 4709.5,-240 4709.5,-240 4709.5,-246 4703.5,-252 4697.5,-252"/>
<text text-anchor="middle" x="4662" y="-231.5" font-family="sans" font-size="10.00">scaffold_default</text>
</g>
<!-- 9&#45;&gt;8 -->
<g id="edge43" class="edge">
<title>9&#45;&gt;8</title>
<path fill="none" stroke="grey" stroke-width="2" d="M4625.84,-215.92C4605.99,-206.13 4581.18,-193.18 4560,-180 4527.32,-159.66 4492.1,-133.19 4468.14,-114.42"/>
<polygon fill="grey" stroke="grey" stroke-width="2" points="4470.17,-111.57 4460.15,-108.12 4465.84,-117.06 4470.17,-111.57"/>
</g>
<!-- 75 -->
<g id="node76" class="node">
<title>75</title>
<path fill="none" stroke="#56d873" stroke-width="2" d="M4739,-180C4739,-180 4581,-180 4581,-180 4575,-180 4569,-174 4569,-168 4569,-168 4569,-156 4569,-156 4569,-150 4575,-144 4581,-144 4581,-144 4739,-144 4739,-144 4745,-144 4751,-150 4751,-156 4751,-156 4751,-168 4751,-168 4751,-174 4745,-180 4739,-180"/>
<text text-anchor="middle" x="4660" y="-159.5" font-family="sans" font-size="10.00">bwa_index_scaffold_assembly_all</text>
</g>
<!-- 9&#45;&gt;75 -->
<g id="edge117" class="edge">
<title>9&#45;&gt;75</title>
<path fill="none" stroke="grey" stroke-width="2" d="M4661.51,-215.7C4661.29,-207.98 4661.02,-198.71 4660.77,-190.11"/>
<polygon fill="grey" stroke="grey" stroke-width="2" points="4664.27,-190 4660.49,-180.1 4657.28,-190.2 4664.27,-190"/>
</g>
<!-- 10 -->
<g id="node11" class="node">
<title>10</title>
<path fill="none" stroke="#d89556" stroke-width="2" d="M4893.5,-108C4893.5,-108 4786.5,-108 4786.5,-108 4780.5,-108 4774.5,-102 4774.5,-96 4774.5,-96 4774.5,-84 4774.5,-84 4774.5,-78 4780.5,-72 4786.5,-72 4786.5,-72 4893.5,-72 4893.5,-72 4899.5,-72 4905.5,-78 4905.5,-84 4905.5,-84 4905.5,-96 4905.5,-96 4905.5,-102 4899.5,-108 4893.5,-108"/>
<text text-anchor="middle" x="4840" y="-87.5" font-family="sans" font-size="10.00">run_busco_euk_hifiasm</text>
</g>
<!-- 10&#45;&gt;0 -->
<g id="edge6" class="edge">
<title>10&#45;&gt;0</title>
<path fill="none" stroke="grey" stroke-width="2" d="M4774.28,-73.33C4771.15,-72.83 4768.05,-72.38 4765,-72 4321.07,-16.91 2850.77,-18.23 2597.35,-18.88"/>
<polygon fill="grey" stroke="grey" stroke-width="2" points="2597.18,-15.38 2587.19,-18.91 2597.2,-22.38 2597.18,-15.38"/>
</g>
<!-- 11 -->
<g id="node12" class="node">
<title>11</title>
<path fill="none" stroke="#56d8a2" stroke-width="2" d="M571.5,-180C571.5,-180 458.5,-180 458.5,-180 452.5,-180 446.5,-174 446.5,-168 446.5,-168 446.5,-156 446.5,-156 446.5,-150 452.5,-144 458.5,-144 458.5,-144 571.5,-144 571.5,-144 577.5,-144 583.5,-150 583.5,-156 583.5,-156 583.5,-168 583.5,-168 583.5,-174 577.5,-180 571.5,-180"/>
<text text-anchor="middle" x="515" y="-159.5" font-family="sans" font-size="10.00">bwa_mem_illumina_stat</text>
</g>
<!-- 11&#45;&gt;0 -->
<g id="edge7" class="edge">
<title>11&#45;&gt;0</title>
<path fill="none" stroke="grey" stroke-width="2" d="M546.04,-143.98C587,-122.54 661.98,-86.7 731,-72 912.01,-33.44 2279.05,-21.16 2522.86,-19.27"/>
<polygon fill="grey" stroke="grey" stroke-width="2" points="2523,-22.77 2532.98,-19.19 2522.95,-15.77 2523,-22.77"/>
</g>
<!-- 12 -->
<g id="node13" class="node">
<title>12</title>
<path fill="none" stroke="#56d88a" stroke-width="2" d="M782.5,-324C782.5,-324 681.5,-324 681.5,-324 675.5,-324 669.5,-318 669.5,-312 669.5,-312 669.5,-300 669.5,-300 669.5,-294 675.5,-288 681.5,-288 681.5,-288 782.5,-288 782.5,-288 788.5,-288 794.5,-294 794.5,-300 794.5,-300 794.5,-312 794.5,-312 794.5,-318 788.5,-324 782.5,-324"/>
<text text-anchor="middle" x="732" y="-309" font-family="sans" font-size="10.00">bwa_mem_illumina</text>
<text text-anchor="middle" x="732" y="-298" font-family="sans" font-size="10.00">sample: SAa046_hyb1</text>
</g>
<!-- 12&#45;&gt;11 -->
<g id="edge44" class="edge">
<title>12&#45;&gt;11</title>
<path fill="none" stroke="grey" stroke-width="2" d="M705.82,-287.87C666.8,-262.34 593.32,-214.25 549.81,-185.78"/>
<polygon fill="grey" stroke="grey" stroke-width="2" points="551.55,-182.74 541.27,-180.19 547.72,-188.59 551.55,-182.74"/>
</g>
<!-- 32 -->
<g id="node33" class="node">
<title>32</title>
<path fill="none" stroke="#61d856" stroke-width="2" d="M744.5,-180C744.5,-180 613.5,-180 613.5,-180 607.5,-180 601.5,-174 601.5,-168 601.5,-168 601.5,-156 601.5,-156 601.5,-150 607.5,-144 613.5,-144 613.5,-144 744.5,-144 744.5,-144 750.5,-144 756.5,-150 756.5,-156 756.5,-156 756.5,-168 756.5,-168 756.5,-174 750.5,-180 744.5,-180"/>
<text text-anchor="middle" x="679" y="-159.5" font-family="sans" font-size="10.00">bwa_mem_illumina_flagstat</text>
</g>
<!-- 12&#45;&gt;32 -->
<g id="edge65" class="edge">
<title>12&#45;&gt;32</title>
<path fill="none" stroke="grey" stroke-width="2" d="M723.06,-287.6C717.99,-277.38 711.74,-264.13 707,-252 699.01,-231.57 691.64,-207.85 686.47,-190.04"/>
<polygon fill="grey" stroke="grey" stroke-width="2" points="689.8,-188.96 683.69,-180.3 683.07,-190.88 689.8,-188.96"/>
</g>
<!-- 43 -->
<g id="node44" class="node">
<title>43</title>
<path fill="none" stroke="#9fd856" stroke-width="2" d="M841.5,-252C841.5,-252 728.5,-252 728.5,-252 722.5,-252 716.5,-246 716.5,-240 716.5,-240 716.5,-228 716.5,-228 716.5,-222 722.5,-216 728.5,-216 728.5,-216 841.5,-216 841.5,-216 847.5,-216 853.5,-222 853.5,-228 853.5,-228 853.5,-240 853.5,-240 853.5,-246 847.5,-252 841.5,-252"/>
<text text-anchor="middle" x="785" y="-231.5" font-family="sans" font-size="10.00">bwa_mem_illumina_sort</text>
</g>
<!-- 12&#45;&gt;43 -->
<g id="edge77" class="edge">
<title>12&#45;&gt;43</title>
<path fill="none" stroke="grey" stroke-width="2" d="M745.1,-287.7C751.39,-279.39 759.05,-269.28 765.96,-260.14"/>
<polygon fill="grey" stroke="grey" stroke-width="2" points="768.8,-262.19 772.05,-252.1 763.22,-257.96 768.8,-262.19"/>
</g>
<!-- 13&#45;&gt;12 -->
<g id="edge45" class="edge">
<title>13&#45;&gt;12</title>
<path fill="none" stroke="grey" stroke-width="2" d="M2158.7,-372.35C1949.6,-363.33 1475.69,-342.7 1077,-324 982.94,-319.59 874.46,-314.19 804.65,-310.68"/>
<polygon fill="grey" stroke="grey" stroke-width="2" points="804.8,-307.18 794.64,-310.18 804.45,-314.17 804.8,-307.18"/>
</g>
<!-- 15 -->
<g id="node16" class="node">
<title>15</title>
<path fill="none" stroke="#56d88a" stroke-width="2" d="M1198.5,-324C1198.5,-324 1097.5,-324 1097.5,-324 1091.5,-324 1085.5,-318 1085.5,-312 1085.5,-312 1085.5,-300 1085.5,-300 1085.5,-294 1091.5,-288 1097.5,-288 1097.5,-288 1198.5,-288 1198.5,-288 1204.5,-288 1210.5,-294 1210.5,-300 1210.5,-300 1210.5,-312 1210.5,-312 1210.5,-318 1204.5,-324 1198.5,-324"/>
<text text-anchor="middle" x="1148" y="-309" font-family="sans" font-size="10.00">bwa_mem_illumina</text>
<text text-anchor="middle" x="1148" y="-298" font-family="sans" font-size="10.00">sample: SAa062_hyb1</text>
</g>
<!-- 13&#45;&gt;15 -->
<g id="edge48" class="edge">
<title>13&#45;&gt;15</title>
<path fill="none" stroke="grey" stroke-width="2" d="M2158.94,-370.24C1932.35,-356.07 1412.62,-323.55 1220.83,-311.56"/>
<polygon fill="grey" stroke="grey" stroke-width="2" points="1220.78,-308.05 1210.58,-310.92 1220.35,-315.03 1220.78,-308.05"/>
</g>
<!-- 17 -->
<g id="node18" class="node">
<title>17</title>
<path fill="none" stroke="#56d88a" stroke-width="2" d="M1614.5,-324C1614.5,-324 1513.5,-324 1513.5,-324 1507.5,-324 1501.5,-318 1501.5,-312 1501.5,-312 1501.5,-300 1501.5,-300 1501.5,-294 1507.5,-288 1513.5,-288 1513.5,-288 1614.5,-288 1614.5,-288 1620.5,-288 1626.5,-294 1626.5,-300 1626.5,-300 1626.5,-312 1626.5,-312 1626.5,-318 1620.5,-324 1614.5,-324"/>
<text text-anchor="middle" x="1564" y="-309" font-family="sans" font-size="10.00">bwa_mem_illumina</text>
<text text-anchor="middle" x="1564" y="-298" font-family="sans" font-size="10.00">sample: THa252_hyb1</text>
</g>
<!-- 13&#45;&gt;17 -->
<g id="edge50" class="edge">
<title>13&#45;&gt;17</title>
<path fill="none" stroke="grey" stroke-width="2" d="M2158.7,-366.22C2013.91,-351.8 1761.13,-326.63 1637,-314.27"/>
<polygon fill="grey" stroke="grey" stroke-width="2" points="1637.14,-310.77 1626.84,-313.26 1636.45,-317.73 1637.14,-310.77"/>
</g>
<!-- 19 -->
<g id="node20" class="node">
<title>19</title>
<path fill="none" stroke="#56d88a" stroke-width="2" d="M2028.5,-324C2028.5,-324 1927.5,-324 1927.5,-324 1921.5,-324 1915.5,-318 1915.5,-312 1915.5,-312 1915.5,-300 1915.5,-300 1915.5,-294 1921.5,-288 1927.5,-288 1927.5,-288 2028.5,-288 2028.5,-288 2034.5,-288 2040.5,-294 2040.5,-300 2040.5,-300 2040.5,-312 2040.5,-312 2040.5,-318 2034.5,-324 2028.5,-324"/>
<text text-anchor="middle" x="1978" y="-309" font-family="sans" font-size="10.00">bwa_mem_illumina</text>
<text text-anchor="middle" x="1978" y="-298" font-family="sans" font-size="10.00">sample: THb134_hyb1</text>
</g>
<!-- 13&#45;&gt;19 -->
<g id="edge52" class="edge">
<title>13&#45;&gt;19</title>
<path fill="none" stroke="grey" stroke-width="2" d="M2196.67,-359.97C2152.4,-349.24 2095.39,-335.43 2050.68,-324.6"/>
<polygon fill="grey" stroke="grey" stroke-width="2" points="2051.3,-321.15 2040.76,-322.2 2049.65,-327.96 2051.3,-321.15"/>
</g>
<!-- 21 -->
<g id="node22" class="node">
<title>21</title>
<path fill="none" stroke="#56d88a" stroke-width="2" d="M2322,-324C2322,-324 2212,-324 2212,-324 2206,-324 2200,-318 2200,-312 2200,-312 2200,-300 2200,-300 2200,-294 2206,-288 2212,-288 2212,-288 2322,-288 2322,-288 2328,-288 2334,-294 2334,-300 2334,-300 2334,-312 2334,-312 2334,-318 2328,-324 2322,-324"/>
<text text-anchor="middle" x="2267" y="-309" font-family="sans" font-size="10.00">bwa_mem_illumina</text>
<text text-anchor="middle" x="2267" y="-298" font-family="sans" font-size="10.00">sample: Thym607_hyb1</text>
</g>
<!-- 13&#45;&gt;21 -->
<g id="edge54" class="edge">
<title>13&#45;&gt;21</title>
<path fill="none" stroke="grey" stroke-width="2" d="M2267,-359.7C2267,-351.98 2267,-342.71 2267,-334.11"/>
<polygon fill="grey" stroke="grey" stroke-width="2" points="2270.5,-334.1 2267,-324.1 2263.5,-334.1 2270.5,-334.1"/>
</g>
<!-- 23 -->
<g id="node24" class="node">
<title>23</title>
<path fill="none" stroke="#56d88a" stroke-width="2" d="M2530.5,-324C2530.5,-324 2429.5,-324 2429.5,-324 2423.5,-324 2417.5,-318 2417.5,-312 2417.5,-312 2417.5,-300 2417.5,-300 2417.5,-294 2423.5,-288 2429.5,-288 2429.5,-288 2530.5,-288 2530.5,-288 2536.5,-288 2542.5,-294 2542.5,-300 2542.5,-300 2542.5,-312 2542.5,-312 2542.5,-318 2536.5,-324 2530.5,-324"/>
<text text-anchor="middle" x="2480" y="-309" font-family="sans" font-size="10.00">bwa_mem_illumina</text>
<text text-anchor="middle" x="2480" y="-298" font-family="sans" font-size="10.00">sample: SAa046_hyb2</text>
</g>
<!-- 13&#45;&gt;23 -->
<g id="edge56" class="edge">
<title>13&#45;&gt;23</title>
<path fill="none" stroke="grey" stroke-width="2" d="M2318.83,-359.97C2348.85,-350.1 2386.82,-337.62 2418.37,-327.25"/>
<polygon fill="grey" stroke="grey" stroke-width="2" points="2419.53,-330.56 2427.93,-324.11 2417.34,-323.91 2419.53,-330.56"/>
</g>
<!-- 25 -->
<g id="node26" class="node">
<title>25</title>
<path fill="none" stroke="#56d88a" stroke-width="2" d="M2883.5,-324C2883.5,-324 2782.5,-324 2782.5,-324 2776.5,-324 2770.5,-318 2770.5,-312 2770.5,-312 2770.5,-300 2770.5,-300 2770.5,-294 2776.5,-288 2782.5,-288 2782.5,-288 2883.5,-288 2883.5,-288 2889.5,-288 2895.5,-294 2895.5,-300 2895.5,-300 2895.5,-312 2895.5,-312 2895.5,-318 2889.5,-324 2883.5,-324"/>
<text text-anchor="middle" x="2833" y="-309" font-family="sans" font-size="10.00">bwa_mem_illumina</text>
<text text-anchor="middle" x="2833" y="-298" font-family="sans" font-size="10.00">sample: SAa062_hyb2</text>
</g>
<!-- 13&#45;&gt;25 -->
<g id="edge58" class="edge">
<title>13&#45;&gt;25</title>
<path fill="none" stroke="grey" stroke-width="2" d="M2375.13,-363.63C2488.24,-349.64 2662.65,-328.07 2760.33,-315.99"/>
<polygon fill="grey" stroke="grey" stroke-width="2" points="2760.91,-319.44 2770.41,-314.74 2760.05,-312.5 2760.91,-319.44"/>
</g>
<!-- 27 -->
<g id="node28" class="node">
<title>27</title>
<path fill="none" stroke="#56d88a" stroke-width="2" d="M3366.5,-324C3366.5,-324 3265.5,-324 3265.5,-324 3259.5,-324 3253.5,-318 3253.5,-312 3253.5,-312 3253.5,-300 3253.5,-300 3253.5,-294 3259.5,-288 3265.5,-288 3265.5,-288 3366.5,-288 3366.5,-288 3372.5,-288 3378.5,-294 3378.5,-300 3378.5,-300 3378.5,-312 3378.5,-312 3378.5,-318 3372.5,-324 3366.5,-324"/>
<text text-anchor="middle" x="3316" y="-309" font-family="sans" font-size="10.00">bwa_mem_illumina</text>
<text text-anchor="middle" x="3316" y="-298" font-family="sans" font-size="10.00">sample: THa252_hyb2</text>
</g>
<!-- 13&#45;&gt;27 -->
<g id="edge60" class="edge">
<title>13&#45;&gt;27</title>
<path fill="none" stroke="grey" stroke-width="2" d="M2375.31,-369.77C2589.44,-355.48 3061.87,-323.96 3243.18,-311.86"/>
<polygon fill="grey" stroke="grey" stroke-width="2" points="3243.66,-315.34 3253.41,-311.18 3243.2,-308.35 3243.66,-315.34"/>
</g>
<!-- 29 -->
<g id="node30" class="node">
<title>29</title>
<path fill="none" stroke="#56d88a" stroke-width="2" d="M3849.5,-324C3849.5,-324 3748.5,-324 3748.5,-324 3742.5,-324 3736.5,-318 3736.5,-312 3736.5,-312 3736.5,-300 3736.5,-300 3736.5,-294 3742.5,-288 3748.5,-288 3748.5,-288 3849.5,-288 3849.5,-288 3855.5,-288 3861.5,-294 3861.5,-300 3861.5,-300 3861.5,-312 3861.5,-312 3861.5,-318 3855.5,-324 3849.5,-324"/>
<text text-anchor="middle" x="3799" y="-309" font-family="sans" font-size="10.00">bwa_mem_illumina</text>
<text text-anchor="middle" x="3799" y="-298" font-family="sans" font-size="10.00">sample: THb134_hyb2</text>
</g>
<!-- 13&#45;&gt;29 -->
<g id="edge62" class="edge">
<title>13&#45;&gt;29</title>
<path fill="none" stroke="grey" stroke-width="2" d="M2375.03,-372.06C2669.06,-358.63 3478.2,-321.66 3725.95,-310.34"/>
<polygon fill="grey" stroke="grey" stroke-width="2" points="3726.44,-313.82 3736.27,-309.87 3726.12,-306.83 3726.44,-313.82"/>
</g>
<!-- 31 -->
<g id="node32" class="node">
<title>31</title>
<path fill="none" stroke="#56d88a" stroke-width="2" d="M4337,-324C4337,-324 4227,-324 4227,-324 4221,-324 4215,-318 4215,-312 4215,-312 4215,-300 4215,-300 4215,-294 4221,-288 4227,-288 4227,-288 4337,-288 4337,-288 4343,-288 4349,-294 4349,-300 4349,-300 4349,-312 4349,-312 4349,-318 4343,-324 4337,-324"/>
<text text-anchor="middle" x="4282" y="-309" font-family="sans" font-size="10.00">bwa_mem_illumina</text>
<text text-anchor="middle" x="4282" y="-298" font-family="sans" font-size="10.00">sample: Thym607_hyb2</text>
</g>
<!-- 13&#45;&gt;31 -->
<g id="edge64" class="edge">
<title>13&#45;&gt;31</title>
<path fill="none" stroke="grey" stroke-width="2" d="M2375.44,-373.73C2634.21,-365.85 3308.22,-344.94 3871,-324 3987.29,-319.67 4122.06,-313.97 4204.67,-310.39"/>
<polygon fill="grey" stroke="grey" stroke-width="2" points="4204.89,-313.88 4214.73,-309.95 4204.59,-306.89 4204.89,-313.88"/>
</g>
<!-- 14 -->
<g id="node15" class="node">
<title>14</title>
<path fill="none" stroke="#56d8a2" stroke-width="2" d="M1129.5,-108C1129.5,-108 1016.5,-108 1016.5,-108 1010.5,-108 1004.5,-102 1004.5,-96 1004.5,-96 1004.5,-84 1004.5,-84 1004.5,-78 1010.5,-72 1016.5,-72 1016.5,-72 1129.5,-72 1129.5,-72 1135.5,-72 1141.5,-78 1141.5,-84 1141.5,-84 1141.5,-96 1141.5,-96 1141.5,-102 1135.5,-108 1129.5,-108"/>
<text text-anchor="middle" x="1073" y="-87.5" font-family="sans" font-size="10.00">bwa_mem_illumina_stat</text>
</g>
<!-- 14&#45;&gt;0 -->
<g id="edge8" class="edge">
<title>14&#45;&gt;0</title>
<path fill="none" stroke="grey" stroke-width="2" d="M1141.65,-75.31C1149.83,-74.02 1158.09,-72.87 1166,-72 1440.08,-41.9 2329.39,-23.41 2522.7,-19.7"/>
<polygon fill="grey" stroke="grey" stroke-width="2" points="2522.97,-23.19 2532.9,-19.5 2522.84,-16.19 2522.97,-23.19"/>
</g>
<!-- 15&#45;&gt;14 -->
<g id="edge47" class="edge">
<title>15&#45;&gt;14</title>
<path fill="none" stroke="grey" stroke-width="2" d="M1116.23,-287.88C1081.95,-267.38 1029.28,-229.52 1007,-180 1000.44,-165.41 1000.08,-158.43 1007,-144 1012.67,-132.18 1022.39,-122.17 1032.66,-114.14"/>
<polygon fill="grey" stroke="grey" stroke-width="2" points="1034.91,-116.83 1040.95,-108.12 1030.8,-111.16 1034.91,-116.83"/>
</g>
<!-- 33 -->
<g id="node34" class="node">
<title>33</title>
<path fill="none" stroke="#61d856" stroke-width="2" d="M1158.5,-180C1158.5,-180 1027.5,-180 1027.5,-180 1021.5,-180 1015.5,-174 1015.5,-168 1015.5,-168 1015.5,-156 1015.5,-156 1015.5,-150 1021.5,-144 1027.5,-144 1027.5,-144 1158.5,-144 1158.5,-144 1164.5,-144 1170.5,-150 1170.5,-156 1170.5,-156 1170.5,-168 1170.5,-168 1170.5,-174 1164.5,-180 1158.5,-180"/>
<text text-anchor="middle" x="1093" y="-159.5" font-family="sans" font-size="10.00">bwa_mem_illumina_flagstat</text>
</g>
<!-- 15&#45;&gt;33 -->
<g id="edge66" class="edge">
<title>15&#45;&gt;33</title>
<path fill="none" stroke="grey" stroke-width="2" d="M1138.7,-287.62C1133.43,-277.41 1126.93,-264.16 1122,-252 1113.72,-231.61 1106.09,-207.89 1100.73,-190.06"/>
<polygon fill="grey" stroke="grey" stroke-width="2" points="1104.04,-188.92 1097.85,-180.32 1097.33,-190.9 1104.04,-188.92"/>
</g>
<!-- 46 -->
<g id="node47" class="node">
<title>46</title>
<path fill="none" stroke="#9fd856" stroke-width="2" d="M1255.5,-252C1255.5,-252 1142.5,-252 1142.5,-252 1136.5,-252 1130.5,-246 1130.5,-240 1130.5,-240 1130.5,-228 1130.5,-228 1130.5,-222 1136.5,-216 1142.5,-216 1142.5,-216 1255.5,-216 1255.5,-216 1261.5,-216 1267.5,-222 1267.5,-228 1267.5,-228 1267.5,-240 1267.5,-240 1267.5,-246 1261.5,-252 1255.5,-252"/>
<text text-anchor="middle" x="1199" y="-231.5" font-family="sans" font-size="10.00">bwa_mem_illumina_sort</text>
</g>
<!-- 15&#45;&gt;46 -->
<g id="edge81" class="edge">
<title>15&#45;&gt;46</title>
<path fill="none" stroke="grey" stroke-width="2" d="M1160.61,-287.7C1166.6,-279.47 1173.88,-269.48 1180.48,-260.42"/>
<polygon fill="grey" stroke="grey" stroke-width="2" points="1183.48,-262.25 1186.54,-252.1 1177.82,-258.13 1183.48,-262.25"/>
</g>
<!-- 16 -->
<g id="node17" class="node">
<title>16</title>
<path fill="none" stroke="#56d8a2" stroke-width="2" d="M1534.5,-108C1534.5,-108 1421.5,-108 1421.5,-108 1415.5,-108 1409.5,-102 1409.5,-96 1409.5,-96 1409.5,-84 1409.5,-84 1409.5,-78 1415.5,-72 1421.5,-72 1421.5,-72 1534.5,-72 1534.5,-72 1540.5,-72 1546.5,-78 1546.5,-84 1546.5,-84 1546.5,-96 1546.5,-96 1546.5,-102 1540.5,-108 1534.5,-108"/>
<text text-anchor="middle" x="1478" y="-87.5" font-family="sans" font-size="10.00">bwa_mem_illumina_stat</text>
</g>
<!-- 16&#45;&gt;0 -->
<g id="edge9" class="edge">
<title>16&#45;&gt;0</title>
<path fill="none" stroke="grey" stroke-width="2" d="M1546.56,-76.61C1558.03,-74.85 1569.83,-73.22 1581,-72 1946.37,-32.08 2391.89,-21.8 2522.41,-19.55"/>
<polygon fill="grey" stroke="grey" stroke-width="2" points="2522.72,-23.05 2532.66,-19.38 2522.6,-16.05 2522.72,-23.05"/>
</g>
<!-- 17&#45;&gt;16 -->
<g id="edge49" class="edge">
<title>17&#45;&gt;16</title>
<path fill="none" stroke="grey" stroke-width="2" d="M1531.8,-287.99C1497.04,-267.6 1443.63,-229.84 1421,-180 1414.38,-165.43 1414.61,-158.67 1421,-144 1425.93,-132.68 1434.61,-122.68 1443.73,-114.51"/>
<polygon fill="grey" stroke="grey" stroke-width="2" points="1445.99,-117.19 1451.42,-108.09 1441.5,-111.81 1445.99,-117.19"/>
</g>
<!-- 34 -->
<g id="node35" class="node">
<title>34</title>
<path fill="none" stroke="#61d856" stroke-width="2" d="M1572.5,-180C1572.5,-180 1441.5,-180 1441.5,-180 1435.5,-180 1429.5,-174 1429.5,-168 1429.5,-168 1429.5,-156 1429.5,-156 1429.5,-150 1435.5,-144 1441.5,-144 1441.5,-144 1572.5,-144 1572.5,-144 1578.5,-144 1584.5,-150 1584.5,-156 1584.5,-156 1584.5,-168 1584.5,-168 1584.5,-174 1578.5,-180 1572.5,-180"/>
<text text-anchor="middle" x="1507" y="-159.5" font-family="sans" font-size="10.00">bwa_mem_illumina_flagstat</text>
</g>
<!-- 17&#45;&gt;34 -->
<g id="edge67" class="edge">
<title>17&#45;&gt;34</title>
<path fill="none" stroke="grey" stroke-width="2" d="M1553.9,-287.7C1548.19,-277.52 1541.19,-264.27 1536,-252 1527.37,-231.61 1519.71,-207.71 1514.43,-189.82"/>
<polygon fill="grey" stroke="grey" stroke-width="2" points="1517.75,-188.68 1511.61,-180.05 1511.02,-190.62 1517.75,-188.68"/>
</g>
<!-- 49 -->
<g id="node50" class="node">
<title>49</title>
<path fill="none" stroke="#9fd856" stroke-width="2" d="M1669.5,-252C1669.5,-252 1556.5,-252 1556.5,-252 1550.5,-252 1544.5,-246 1544.5,-240 1544.5,-240 1544.5,-228 1544.5,-228 1544.5,-222 1550.5,-216 1556.5,-216 1556.5,-216 1669.5,-216 1669.5,-216 1675.5,-216 1681.5,-222 1681.5,-228 1681.5,-228 1681.5,-240 1681.5,-240 1681.5,-246 1675.5,-252 1669.5,-252"/>
<text text-anchor="middle" x="1613" y="-231.5" font-family="sans" font-size="10.00">bwa_mem_illumina_sort</text>
</g>
<!-- 17&#45;&gt;49 -->
<g id="edge85" class="edge">
<title>17&#45;&gt;49</title>
<path fill="none" stroke="grey" stroke-width="2" d="M1576.11,-287.7C1581.87,-279.47 1588.86,-269.48 1595.21,-260.42"/>
<polygon fill="grey" stroke="grey" stroke-width="2" points="1598.16,-262.3 1601.03,-252.1 1592.42,-258.29 1598.16,-262.3"/>
</g>
<!-- 18 -->
<g id="node19" class="node">
<title>18</title>
<path fill="none" stroke="#56d8a2" stroke-width="2" d="M1942.5,-108C1942.5,-108 1829.5,-108 1829.5,-108 1823.5,-108 1817.5,-102 1817.5,-96 1817.5,-96 1817.5,-84 1817.5,-84 1817.5,-78 1823.5,-72 1829.5,-72 1829.5,-72 1942.5,-72 1942.5,-72 1948.5,-72 1954.5,-78 1954.5,-84 1954.5,-84 1954.5,-96 1954.5,-96 1954.5,-102 1948.5,-108 1942.5,-108"/>
<text text-anchor="middle" x="1886" y="-87.5" font-family="sans" font-size="10.00">bwa_mem_illumina_stat</text>
</g>
<!-- 18&#45;&gt;0 -->
<g id="edge10" class="edge">
<title>18&#45;&gt;0</title>
<path fill="none" stroke="grey" stroke-width="2" d="M1954.95,-75.41C1962.38,-74.16 1969.84,-72.99 1977,-72 2182.26,-43.56 2430.38,-26.8 2522.88,-21.16"/>
<polygon fill="grey" stroke="grey" stroke-width="2" points="2523.1,-24.65 2532.87,-20.56 2522.68,-17.66 2523.1,-24.65"/>
</g>
<!-- 19&#45;&gt;18 -->
<g id="edge51" class="edge">
<title>19&#45;&gt;18</title>
<path fill="none" stroke="grey" stroke-width="2" d="M1945.8,-287.99C1911.04,-267.6 1857.63,-229.84 1835,-180 1828.38,-165.43 1829.02,-158.84 1835,-144 1839.35,-133.21 1847.06,-123.39 1855.19,-115.21"/>
<polygon fill="grey" stroke="grey" stroke-width="2" points="1857.79,-117.57 1862.7,-108.18 1853,-112.46 1857.79,-117.57"/>
</g>
<!-- 35 -->
<g id="node36" class="node">
<title>35</title>
<path fill="none" stroke="#61d856" stroke-width="2" d="M1986.5,-180C1986.5,-180 1855.5,-180 1855.5,-180 1849.5,-180 1843.5,-174 1843.5,-168 1843.5,-168 1843.5,-156 1843.5,-156 1843.5,-150 1849.5,-144 1855.5,-144 1855.5,-144 1986.5,-144 1986.5,-144 1992.5,-144 1998.5,-150 1998.5,-156 1998.5,-156 1998.5,-168 1998.5,-168 1998.5,-174 1992.5,-180 1986.5,-180"/>
<text text-anchor="middle" x="1921" y="-159.5" font-family="sans" font-size="10.00">bwa_mem_illumina_flagstat</text>
</g>
<!-- 19&#45;&gt;35 -->
<g id="edge68" class="edge">
<title>19&#45;&gt;35</title>
<path fill="none" stroke="grey" stroke-width="2" d="M1967.9,-287.7C1962.19,-277.52 1955.19,-264.27 1950,-252 1941.37,-231.61 1933.71,-207.71 1928.43,-189.82"/>
<polygon fill="grey" stroke="grey" stroke-width="2" points="1931.75,-188.68 1925.61,-180.05 1925.02,-190.62 1931.75,-188.68"/>
</g>
<!-- 52 -->
<g id="node53" class="node">
<title>52</title>
<path fill="none" stroke="#9fd856" stroke-width="2" d="M2083.5,-252C2083.5,-252 1970.5,-252 1970.5,-252 1964.5,-252 1958.5,-246 1958.5,-240 1958.5,-240 1958.5,-228 1958.5,-228 1958.5,-222 1964.5,-216 1970.5,-216 1970.5,-216 2083.5,-216 2083.5,-216 2089.5,-216 2095.5,-222 2095.5,-228 2095.5,-228 2095.5,-240 2095.5,-240 2095.5,-246 2089.5,-252 2083.5,-252"/>
<text text-anchor="middle" x="2027" y="-231.5" font-family="sans" font-size="10.00">bwa_mem_illumina_sort</text>
</g>
<!-- 19&#45;&gt;52 -->
<g id="edge89" class="edge">
<title>19&#45;&gt;52</title>
<path fill="none" stroke="grey" stroke-width="2" d="M1990.11,-287.7C1995.87,-279.47 2002.86,-269.48 2009.21,-260.42"/>
<polygon fill="grey" stroke="grey" stroke-width="2" points="2012.16,-262.3 2015.03,-252.1 2006.42,-258.29 2012.16,-262.3"/>
</g>
<!-- 20 -->
<g id="node21" class="node">
<title>20</title>
<path fill="none" stroke="#56d8a2" stroke-width="2" d="M2327.5,-108C2327.5,-108 2214.5,-108 2214.5,-108 2208.5,-108 2202.5,-102 2202.5,-96 2202.5,-96 2202.5,-84 2202.5,-84 2202.5,-78 2208.5,-72 2214.5,-72 2214.5,-72 2327.5,-72 2327.5,-72 2333.5,-72 2339.5,-78 2339.5,-84 2339.5,-84 2339.5,-96 2339.5,-96 2339.5,-102 2333.5,-108 2327.5,-108"/>
<text text-anchor="middle" x="2271" y="-87.5" font-family="sans" font-size="10.00">bwa_mem_illumina_stat</text>
</g>
<!-- 20&#45;&gt;0 -->
<g id="edge11" class="edge">
<title>20&#45;&gt;0</title>
<path fill="none" stroke="grey" stroke-width="2" d="M2339.86,-72.32C2397.28,-58.41 2476.91,-39.12 2522.99,-27.96"/>
<polygon fill="grey" stroke="grey" stroke-width="2" points="2523.95,-31.33 2532.85,-25.58 2522.3,-24.53 2523.95,-31.33"/>
</g>
<!-- 21&#45;&gt;20 -->
<g id="edge53" class="edge">
<title>21&#45;&gt;20</title>
<path fill="none" stroke="grey" stroke-width="2" d="M2261.68,-287.93C2253.22,-258.38 2238.66,-195.86 2249,-144 2250.79,-135.01 2254.14,-125.64 2257.69,-117.32"/>
<polygon fill="grey" stroke="grey" stroke-width="2" points="2260.92,-118.67 2261.87,-108.12 2254.54,-115.77 2260.92,-118.67"/>
</g>
<!-- 36 -->
<g id="node37" class="node">
<title>36</title>
<path fill="none" stroke="#61d856" stroke-width="2" d="M2400.5,-180C2400.5,-180 2269.5,-180 2269.5,-180 2263.5,-180 2257.5,-174 2257.5,-168 2257.5,-168 2257.5,-156 2257.5,-156 2257.5,-150 2263.5,-144 2269.5,-144 2269.5,-144 2400.5,-144 2400.5,-144 2406.5,-144 2412.5,-150 2412.5,-156 2412.5,-156 2412.5,-168 2412.5,-168 2412.5,-174 2406.5,-180 2400.5,-180"/>
<text text-anchor="middle" x="2335" y="-159.5" font-family="sans" font-size="10.00">bwa_mem_illumina_flagstat</text>
</g>
<!-- 21&#45;&gt;36 -->
<g id="edge69" class="edge">
<title>21&#45;&gt;36</title>
<path fill="none" stroke="grey" stroke-width="2" d="M2268.26,-287.71C2270.2,-269.1 2275.04,-239.06 2287,-216 2292.34,-205.71 2300.17,-195.87 2307.97,-187.52"/>
<polygon fill="grey" stroke="grey" stroke-width="2" points="2310.54,-189.9 2315.05,-180.31 2305.54,-185 2310.54,-189.9"/>
</g>
<!-- 55 -->
<g id="node56" class="node">
<title>55</title>
<path fill="none" stroke="#9fd856" stroke-width="2" d="M2420.5,-252C2420.5,-252 2307.5,-252 2307.5,-252 2301.5,-252 2295.5,-246 2295.5,-240 2295.5,-240 2295.5,-228 2295.5,-228 2295.5,-222 2301.5,-216 2307.5,-216 2307.5,-216 2420.5,-216 2420.5,-216 2426.5,-216 2432.5,-222 2432.5,-228 2432.5,-228 2432.5,-240 2432.5,-240 2432.5,-246 2426.5,-252 2420.5,-252"/>
<text text-anchor="middle" x="2364" y="-231.5" font-family="sans" font-size="10.00">bwa_mem_illumina_sort</text>
</g>
<!-- 21&#45;&gt;55 -->
<g id="edge93" class="edge">
<title>21&#45;&gt;55</title>
<path fill="none" stroke="grey" stroke-width="2" d="M2290.98,-287.7C2303.31,-278.8 2318.52,-267.82 2331.85,-258.2"/>
<polygon fill="grey" stroke="grey" stroke-width="2" points="2334.24,-260.79 2340.3,-252.1 2330.14,-255.12 2334.24,-260.79"/>
</g>
<!-- 22 -->
<g id="node23" class="node">
<title>22</title>
<path fill="none" stroke="#56d8a2" stroke-width="2" d="M2700.5,-108C2700.5,-108 2587.5,-108 2587.5,-108 2581.5,-108 2575.5,-102 2575.5,-96 2575.5,-96 2575.5,-84 2575.5,-84 2575.5,-78 2581.5,-72 2587.5,-72 2587.5,-72 2700.5,-72 2700.5,-72 2706.5,-72 2712.5,-78 2712.5,-84 2712.5,-84 2712.5,-96 2712.5,-96 2712.5,-102 2706.5,-108 2700.5,-108"/>
<text text-anchor="middle" x="2644" y="-87.5" font-family="sans" font-size="10.00">bwa_mem_illumina_stat</text>
</g>
<!-- 22&#45;&gt;0 -->
<g id="edge12" class="edge">
<title>22&#45;&gt;0</title>
<path fill="none" stroke="grey" stroke-width="2" d="M2623.24,-71.7C2612.76,-62.97 2599.89,-52.24 2588.5,-42.75"/>
<polygon fill="grey" stroke="grey" stroke-width="2" points="2590.45,-39.82 2580.53,-36.1 2585.97,-45.19 2590.45,-39.82"/>
</g>
<!-- 23&#45;&gt;22 -->
<g id="edge55" class="edge">
<title>23&#45;&gt;22</title>
<path fill="none" stroke="grey" stroke-width="2" d="M2476.7,-287.7C2473.99,-267.95 2472.97,-235.81 2490,-216 2530.2,-169.24 2581.31,-224.5 2624,-180 2639.63,-163.7 2644.06,-137.95 2644.91,-118.33"/>
<polygon fill="grey" stroke="grey" stroke-width="2" points="2648.41,-118.21 2645.06,-108.16 2641.41,-118.1 2648.41,-118.21"/>
</g>
<!-- 37 -->
<g id="node38" class="node">
<title>37</title>
<path fill="none" stroke="#61d856" stroke-width="2" d="M2814.5,-180C2814.5,-180 2683.5,-180 2683.5,-180 2677.5,-180 2671.5,-174 2671.5,-168 2671.5,-168 2671.5,-156 2671.5,-156 2671.5,-150 2677.5,-144 2683.5,-144 2683.5,-144 2814.5,-144 2814.5,-144 2820.5,-144 2826.5,-150 2826.5,-156 2826.5,-156 2826.5,-168 2826.5,-168 2826.5,-174 2820.5,-180 2814.5,-180"/>
<text text-anchor="middle" x="2749" y="-159.5" font-family="sans" font-size="10.00">bwa_mem_illumina_flagstat</text>
</g>
<!-- 23&#45;&gt;37 -->
<g id="edge70" class="edge">
<title>23&#45;&gt;37</title>
<path fill="none" stroke="grey" stroke-width="2" d="M2482.77,-287.81C2486.97,-267.54 2496.92,-234.3 2519,-216 2530.32,-206.62 2601.23,-191.1 2661.36,-179.27"/>
<polygon fill="grey" stroke="grey" stroke-width="2" points="2662.14,-182.68 2671.29,-177.33 2660.8,-175.81 2662.14,-182.68"/>
</g>
<!-- 58 -->
<g id="node59" class="node">
<title>58</title>
<path fill="none" stroke="#9fd856" stroke-width="2" d="M2652.5,-252C2652.5,-252 2539.5,-252 2539.5,-252 2533.5,-252 2527.5,-246 2527.5,-240 2527.5,-240 2527.5,-228 2527.5,-228 2527.5,-222 2533.5,-216 2539.5,-216 2539.5,-216 2652.5,-216 2652.5,-216 2658.5,-216 2664.5,-222 2664.5,-228 2664.5,-228 2664.5,-240 2664.5,-240 2664.5,-246 2658.5,-252 2652.5,-252"/>
<text text-anchor="middle" x="2596" y="-231.5" font-family="sans" font-size="10.00">bwa_mem_illumina_sort</text>
</g>
<!-- 23&#45;&gt;58 -->
<g id="edge97" class="edge">
<title>23&#45;&gt;58</title>
<path fill="none" stroke="grey" stroke-width="2" d="M2508.38,-287.88C2523.54,-278.72 2542.41,-267.34 2558.74,-257.48"/>
<polygon fill="grey" stroke="grey" stroke-width="2" points="2560.76,-260.35 2567.51,-252.19 2557.14,-254.36 2560.76,-260.35"/>
</g>
<!-- 24 -->
<g id="node25" class="node">
<title>24</title>
<path fill="none" stroke="#56d8a2" stroke-width="2" d="M2807.5,-252C2807.5,-252 2694.5,-252 2694.5,-252 2688.5,-252 2682.5,-246 2682.5,-240 2682.5,-240 2682.5,-228 2682.5,-228 2682.5,-222 2688.5,-216 2694.5,-216 2694.5,-216 2807.5,-216 2807.5,-216 2813.5,-216 2819.5,-222 2819.5,-228 2819.5,-228 2819.5,-240 2819.5,-240 2819.5,-246 2813.5,-252 2807.5,-252"/>
<text text-anchor="middle" x="2751" y="-231.5" font-family="sans" font-size="10.00">bwa_mem_illumina_stat</text>
</g>
<!-- 24&#45;&gt;0 -->
<g id="edge13" class="edge">
<title>24&#45;&gt;0</title>
<path fill="none" stroke="grey" stroke-width="2" d="M2819.87,-217.82C2822.95,-217.19 2826.01,-216.58 2829,-216 2925.43,-197.2 3081.26,-232.21 3038,-144 3014.98,-97.07 2993.19,-92.25 2945,-72 2882.52,-45.74 2680.98,-28.06 2597.14,-21.66"/>
<polygon fill="grey" stroke="grey" stroke-width="2" points="2597.28,-18.16 2587.04,-20.9 2596.75,-25.14 2597.28,-18.16"/>
</g>
<!-- 25&#45;&gt;24 -->
<g id="edge57" class="edge">
<title>25&#45;&gt;24</title>
<path fill="none" stroke="grey" stroke-width="2" d="M2812.73,-287.7C2802.5,-278.97 2789.94,-268.24 2778.82,-258.75"/>
<polygon fill="grey" stroke="grey" stroke-width="2" points="2780.91,-255.94 2771.04,-252.1 2776.37,-261.26 2780.91,-255.94"/>
</g>
<!-- 38 -->
<g id="node39" class="node">
<title>38</title>
<path fill="none" stroke="#61d856" stroke-width="2" d="M2980.5,-252C2980.5,-252 2849.5,-252 2849.5,-252 2843.5,-252 2837.5,-246 2837.5,-240 2837.5,-240 2837.5,-228 2837.5,-228 2837.5,-222 2843.5,-216 2849.5,-216 2849.5,-216 2980.5,-216 2980.5,-216 2986.5,-216 2992.5,-222 2992.5,-228 2992.5,-228 2992.5,-240 2992.5,-240 2992.5,-246 2986.5,-252 2980.5,-252"/>
<text text-anchor="middle" x="2915" y="-231.5" font-family="sans" font-size="10.00">bwa_mem_illumina_flagstat</text>
</g>
<!-- 25&#45;&gt;38 -->
<g id="edge71" class="edge">
<title>25&#45;&gt;38</title>
<path fill="none" stroke="grey" stroke-width="2" d="M2853.27,-287.7C2863.5,-278.97 2876.06,-268.24 2887.18,-258.75"/>
<polygon fill="grey" stroke="grey" stroke-width="2" points="2889.63,-261.26 2894.96,-252.1 2885.09,-255.94 2889.63,-261.26"/>
</g>
<!-- 61 -->
<g id="node62" class="node">
<title>61</title>
<path fill="none" stroke="#9fd856" stroke-width="2" d="M3135.5,-252C3135.5,-252 3022.5,-252 3022.5,-252 3016.5,-252 3010.5,-246 3010.5,-240 3010.5,-240 3010.5,-228 3010.5,-228 3010.5,-222 3016.5,-216 3022.5,-216 3022.5,-216 3135.5,-216 3135.5,-216 3141.5,-216 3147.5,-222 3147.5,-228 3147.5,-228 3147.5,-240 3147.5,-240 3147.5,-246 3141.5,-252 3135.5,-252"/>
<text text-anchor="middle" x="3079" y="-231.5" font-family="sans" font-size="10.00">bwa_mem_illumina_sort</text>
</g>
<!-- 25&#45;&gt;61 -->
<g id="edge101" class="edge">
<title>25&#45;&gt;61</title>
<path fill="none" stroke="grey" stroke-width="2" d="M2892.86,-287.97C2927.98,-277.97 2972.52,-265.3 3009.23,-254.85"/>
<polygon fill="grey" stroke="grey" stroke-width="2" points="3010.21,-258.21 3018.87,-252.11 3008.29,-251.48 3010.21,-258.21"/>
</g>
<!-- 26 -->
<g id="node27" class="node">
<title>26</title>
<path fill="none" stroke="#56d8a2" stroke-width="2" d="M3290.5,-252C3290.5,-252 3177.5,-252 3177.5,-252 3171.5,-252 3165.5,-246 3165.5,-240 3165.5,-240 3165.5,-228 3165.5,-228 3165.5,-222 3171.5,-216 3177.5,-216 3177.5,-216 3290.5,-216 3290.5,-216 3296.5,-216 3302.5,-222 3302.5,-228 3302.5,-228 3302.5,-240 3302.5,-240 3302.5,-246 3296.5,-252 3290.5,-252"/>
<text text-anchor="middle" x="3234" y="-231.5" font-family="sans" font-size="10.00">bwa_mem_illumina_stat</text>
</g>
<!-- 26&#45;&gt;0 -->
<g id="edge14" class="edge">
<title>26&#45;&gt;0</title>
<path fill="none" stroke="grey" stroke-width="2" d="M3276.62,-215.99C3291.87,-207.58 3307.41,-195.78 3316,-180 3339.42,-136.98 3332.3,-102.54 3294,-72 3239.24,-28.33 2739.72,-20.59 2597.58,-19.26"/>
<polygon fill="grey" stroke="grey" stroke-width="2" points="2597.24,-15.76 2587.21,-19.17 2597.18,-22.76 2597.24,-15.76"/>
</g>
<!-- 27&#45;&gt;26 -->
<g id="edge59" class="edge">
<title>27&#45;&gt;26</title>
<path fill="none" stroke="grey" stroke-width="2" d="M3295.73,-287.7C3285.5,-278.97 3272.94,-268.24 3261.82,-258.75"/>
<polygon fill="grey" stroke="grey" stroke-width="2" points="3263.91,-255.94 3254.04,-252.1 3259.37,-261.26 3263.91,-255.94"/>
</g>
<!-- 39 -->
<g id="node40" class="node">
<title>39</title>
<path fill="none" stroke="#61d856" stroke-width="2" d="M3463.5,-252C3463.5,-252 3332.5,-252 3332.5,-252 3326.5,-252 3320.5,-246 3320.5,-240 3320.5,-240 3320.5,-228 3320.5,-228 3320.5,-222 3326.5,-216 3332.5,-216 3332.5,-216 3463.5,-216 3463.5,-216 3469.5,-216 3475.5,-222 3475.5,-228 3475.5,-228 3475.5,-240 3475.5,-240 3475.5,-246 3469.5,-252 3463.5,-252"/>
<text text-anchor="middle" x="3398" y="-231.5" font-family="sans" font-size="10.00">bwa_mem_illumina_flagstat</text>
</g>
<!-- 27&#45;&gt;39 -->
<g id="edge72" class="edge">
<title>27&#45;&gt;39</title>
<path fill="none" stroke="grey" stroke-width="2" d="M3336.27,-287.7C3346.5,-278.97 3359.06,-268.24 3370.18,-258.75"/>
<polygon fill="grey" stroke="grey" stroke-width="2" points="3372.63,-261.26 3377.96,-252.1 3368.09,-255.94 3372.63,-261.26"/>
</g>
<!-- 64 -->
<g id="node65" class="node">
<title>64</title>
<path fill="none" stroke="#9fd856" stroke-width="2" d="M3618.5,-252C3618.5,-252 3505.5,-252 3505.5,-252 3499.5,-252 3493.5,-246 3493.5,-240 3493.5,-240 3493.5,-228 3493.5,-228 3493.5,-222 3499.5,-216 3505.5,-216 3505.5,-216 3618.5,-216 3618.5,-216 3624.5,-216 3630.5,-222 3630.5,-228 3630.5,-228 3630.5,-240 3630.5,-240 3630.5,-246 3624.5,-252 3618.5,-252"/>
<text text-anchor="middle" x="3562" y="-231.5" font-family="sans" font-size="10.00">bwa_mem_illumina_sort</text>
</g>
<!-- 27&#45;&gt;64 -->
<g id="edge105" class="edge">
<title>27&#45;&gt;64</title>
<path fill="none" stroke="grey" stroke-width="2" d="M3375.86,-287.97C3410.98,-277.97 3455.52,-265.3 3492.23,-254.85"/>
<polygon fill="grey" stroke="grey" stroke-width="2" points="3493.21,-258.21 3501.87,-252.11 3491.29,-251.48 3493.21,-258.21"/>
</g>
<!-- 28 -->
<g id="node29" class="node">
<title>28</title>
<path fill="none" stroke="#56d8a2" stroke-width="2" d="M3773.5,-252C3773.5,-252 3660.5,-252 3660.5,-252 3654.5,-252 3648.5,-246 3648.5,-240 3648.5,-240 3648.5,-228 3648.5,-228 3648.5,-222 3654.5,-216 3660.5,-216 3660.5,-216 3773.5,-216 3773.5,-216 3779.5,-216 3785.5,-222 3785.5,-228 3785.5,-228 3785.5,-240 3785.5,-240 3785.5,-246 3779.5,-252 3773.5,-252"/>
<text text-anchor="middle" x="3717" y="-231.5" font-family="sans" font-size="10.00">bwa_mem_illumina_stat</text>
</g>
<!-- 28&#45;&gt;0 -->
<g id="edge15" class="edge">
<title>28&#45;&gt;0</title>
<path fill="none" stroke="grey" stroke-width="2" d="M3708.3,-215.94C3689.26,-180.81 3640.1,-101.22 3572,-72 3481.14,-33.01 2769.54,-21.63 2597.4,-19.43"/>
<polygon fill="grey" stroke="grey" stroke-width="2" points="2597.35,-15.93 2587.31,-19.31 2597.26,-22.93 2597.35,-15.93"/>
</g>
<!-- 29&#45;&gt;28 -->
<g id="edge61" class="edge">
<title>29&#45;&gt;28</title>
<path fill="none" stroke="grey" stroke-width="2" d="M3778.73,-287.7C3768.5,-278.97 3755.94,-268.24 3744.82,-258.75"/>
<polygon fill="grey" stroke="grey" stroke-width="2" points="3746.91,-255.94 3737.04,-252.1 3742.37,-261.26 3746.91,-255.94"/>
</g>
<!-- 40 -->
<g id="node41" class="node">
<title>40</title>
<path fill="none" stroke="#61d856" stroke-width="2" d="M3946.5,-252C3946.5,-252 3815.5,-252 3815.5,-252 3809.5,-252 3803.5,-246 3803.5,-240 3803.5,-240 3803.5,-228 3803.5,-228 3803.5,-222 3809.5,-216 3815.5,-216 3815.5,-216 3946.5,-216 3946.5,-216 3952.5,-216 3958.5,-222 3958.5,-228 3958.5,-228 3958.5,-240 3958.5,-240 3958.5,-246 3952.5,-252 3946.5,-252"/>
<text text-anchor="middle" x="3881" y="-231.5" font-family="sans" font-size="10.00">bwa_mem_illumina_flagstat</text>
</g>
<!-- 29&#45;&gt;40 -->
<g id="edge73" class="edge">
<title>29&#45;&gt;40</title>
<path fill="none" stroke="grey" stroke-width="2" d="M3819.27,-287.7C3829.5,-278.97 3842.06,-268.24 3853.18,-258.75"/>
<polygon fill="grey" stroke="grey" stroke-width="2" points="3855.63,-261.26 3860.96,-252.1 3851.09,-255.94 3855.63,-261.26"/>
</g>
<!-- 67 -->
<g id="node68" class="node">
<title>67</title>
<path fill="none" stroke="#9fd856" stroke-width="2" d="M4101.5,-252C4101.5,-252 3988.5,-252 3988.5,-252 3982.5,-252 3976.5,-246 3976.5,-240 3976.5,-240 3976.5,-228 3976.5,-228 3976.5,-222 3982.5,-216 3988.5,-216 3988.5,-216 4101.5,-216 4101.5,-216 4107.5,-216 4113.5,-222 4113.5,-228 4113.5,-228 4113.5,-240 4113.5,-240 4113.5,-246 4107.5,-252 4101.5,-252"/>
<text text-anchor="middle" x="4045" y="-231.5" font-family="sans" font-size="10.00">bwa_mem_illumina_sort</text>
</g>
<!-- 29&#45;&gt;67 -->
<g id="edge109" class="edge">
<title>29&#45;&gt;67</title>
<path fill="none" stroke="grey" stroke-width="2" d="M3858.86,-287.97C3893.98,-277.97 3938.52,-265.3 3975.23,-254.85"/>
<polygon fill="grey" stroke="grey" stroke-width="2" points="3976.21,-258.21 3984.87,-252.11 3974.29,-251.48 3976.21,-258.21"/>
</g>
<!-- 30 -->
<g id="node31" class="node">
<title>30</title>
<path fill="none" stroke="#56d8a2" stroke-width="2" d="M4256.5,-252C4256.5,-252 4143.5,-252 4143.5,-252 4137.5,-252 4131.5,-246 4131.5,-240 4131.5,-240 4131.5,-228 4131.5,-228 4131.5,-222 4137.5,-216 4143.5,-216 4143.5,-216 4256.5,-216 4256.5,-216 4262.5,-216 4268.5,-222 4268.5,-228 4268.5,-228 4268.5,-240 4268.5,-240 4268.5,-246 4262.5,-252 4256.5,-252"/>
<text text-anchor="middle" x="4200" y="-231.5" font-family="sans" font-size="10.00">bwa_mem_illumina_stat</text>
</g>
<!-- 30&#45;&gt;0 -->
<g id="edge16" class="edge">
<title>30&#45;&gt;0</title>
<path fill="none" stroke="grey" stroke-width="2" d="M4183.93,-215.9C4147.33,-177.46 4057.86,-86.44 4018,-72 3880.92,-22.34 2811.09,-19.14 2597.16,-18.99"/>
<polygon fill="grey" stroke="grey" stroke-width="2" points="2597.07,-15.49 2587.06,-18.99 2597.06,-22.49 2597.07,-15.49"/>
</g>
<!-- 31&#45;&gt;30 -->
<g id="edge63" class="edge">
<title>31&#45;&gt;30</title>
<path fill="none" stroke="grey" stroke-width="2" d="M4261.73,-287.7C4251.5,-278.97 4238.94,-268.24 4227.82,-258.75"/>
<polygon fill="grey" stroke="grey" stroke-width="2" points="4229.91,-255.94 4220.04,-252.1 4225.37,-261.26 4229.91,-255.94"/>
</g>
<!-- 41 -->
<g id="node42" class="node">
<title>41</title>
<path fill="none" stroke="#61d856" stroke-width="2" d="M4429.5,-252C4429.5,-252 4298.5,-252 4298.5,-252 4292.5,-252 4286.5,-246 4286.5,-240 4286.5,-240 4286.5,-228 4286.5,-228 4286.5,-222 4292.5,-216 4298.5,-216 4298.5,-216 4429.5,-216 4429.5,-216 4435.5,-216 4441.5,-222 4441.5,-228 4441.5,-228 4441.5,-240 4441.5,-240 4441.5,-246 4435.5,-252 4429.5,-252"/>
<text text-anchor="middle" x="4364" y="-231.5" font-family="sans" font-size="10.00">bwa_mem_illumina_flagstat</text>
</g>
<!-- 31&#45;&gt;41 -->
<g id="edge74" class="edge">
<title>31&#45;&gt;41</title>
<path fill="none" stroke="grey" stroke-width="2" d="M4302.27,-287.7C4312.5,-278.97 4325.06,-268.24 4336.18,-258.75"/>
<polygon fill="grey" stroke="grey" stroke-width="2" points="4338.63,-261.26 4343.96,-252.1 4334.09,-255.94 4338.63,-261.26"/>
</g>
<!-- 70 -->
<g id="node71" class="node">
<title>70</title>
<path fill="none" stroke="#9fd856" stroke-width="2" d="M4584.5,-252C4584.5,-252 4471.5,-252 4471.5,-252 4465.5,-252 4459.5,-246 4459.5,-240 4459.5,-240 4459.5,-228 4459.5,-228 4459.5,-222 4465.5,-216 4471.5,-216 4471.5,-216 4584.5,-216 4584.5,-216 4590.5,-216 4596.5,-222 4596.5,-228 4596.5,-228 4596.5,-240 4596.5,-240 4596.5,-246 4590.5,-252 4584.5,-252"/>
<text text-anchor="middle" x="4528" y="-231.5" font-family="sans" font-size="10.00">bwa_mem_illumina_sort</text>
</g>
<!-- 31&#45;&gt;70 -->
<g id="edge113" class="edge">
<title>31&#45;&gt;70</title>
<path fill="none" stroke="grey" stroke-width="2" d="M4341.86,-287.97C4376.98,-277.97 4421.52,-265.3 4458.23,-254.85"/>
<polygon fill="grey" stroke="grey" stroke-width="2" points="4459.21,-258.21 4467.87,-252.11 4457.29,-251.48 4459.21,-258.21"/>
</g>
<!-- 32&#45;&gt;0 -->
<g id="edge17" class="edge">
<title>32&#45;&gt;0</title>
<path fill="none" stroke="grey" stroke-width="2" d="M694.8,-143.65C715.58,-122.2 754.38,-86.73 796,-72 963.92,-12.57 2282.4,-17.38 2522.54,-18.76"/>
<polygon fill="grey" stroke="grey" stroke-width="2" points="2522.82,-22.26 2532.84,-18.82 2522.86,-15.26 2522.82,-22.26"/>
</g>
<!-- 33&#45;&gt;0 -->
<g id="edge18" class="edge">
<title>33&#45;&gt;0</title>
<path fill="none" stroke="grey" stroke-width="2" d="M1112.73,-143.78C1140.3,-120.16 1189.37,-79.72 1211,-72 1337.46,-26.88 2318.39,-20.07 2522.77,-19.14"/>
<polygon fill="grey" stroke="grey" stroke-width="2" points="2523,-22.64 2532.98,-19.09 2522.97,-15.64 2523,-22.64"/>
</g>
<!-- 34&#45;&gt;0 -->
<g id="edge19" class="edge">
<title>34&#45;&gt;0</title>
<path fill="none" stroke="grey" stroke-width="2" d="M1523.03,-143.82C1544.09,-122.55 1583.32,-87.28 1625,-72 1710.33,-40.72 2359.85,-23.65 2522.94,-19.83"/>
<polygon fill="grey" stroke="grey" stroke-width="2" points="2523.05,-23.33 2532.97,-19.6 2522.89,-16.33 2523.05,-23.33"/>
</g>
<!-- 35&#45;&gt;0 -->
<g id="edge20" class="edge">
<title>35&#45;&gt;0</title>
<path fill="none" stroke="grey" stroke-width="2" d="M1933.36,-143.72C1949.48,-122.69 1979.82,-88.03 2015,-72 2105.94,-30.57 2415.11,-21.44 2522.71,-19.5"/>
<polygon fill="grey" stroke="grey" stroke-width="2" points="2522.84,-23 2532.78,-19.33 2522.72,-16 2522.84,-23"/>
</g>
<!-- 36&#45;&gt;0 -->
<g id="edge21" class="edge">
<title>36&#45;&gt;0</title>
<path fill="none" stroke="grey" stroke-width="2" d="M2340.92,-143.66C2348.66,-123.55 2364.11,-90.78 2388,-72 2427.52,-40.93 2485.29,-27.98 2522.77,-22.65"/>
<polygon fill="grey" stroke="grey" stroke-width="2" points="2523.31,-26.1 2532.77,-21.33 2522.4,-19.16 2523.31,-26.1"/>
</g>
<!-- 37&#45;&gt;0 -->
<g id="edge22" class="edge">
<title>37&#45;&gt;0</title>
<path fill="none" stroke="grey" stroke-width="2" d="M2748.38,-143.91C2746.74,-124.04 2741.09,-91.5 2722,-72 2688.94,-38.22 2634.07,-25.96 2597.47,-21.52"/>
<polygon fill="grey" stroke="grey" stroke-width="2" points="2597.52,-18 2587.21,-20.42 2596.78,-24.96 2597.52,-18"/>
</g>
<!-- 38&#45;&gt;0 -->
<g id="edge23" class="edge">
<title>38&#45;&gt;0</title>
<path fill="none" stroke="grey" stroke-width="2" d="M2980.59,-215.95C3012.44,-206.21 3045.81,-193.31 3055,-180 3086.58,-134.28 3041.11,-98.01 2992,-72 2923.75,-35.86 2689.07,-23.64 2597.25,-20.19"/>
<polygon fill="grey" stroke="grey" stroke-width="2" points="2597.16,-16.68 2587.04,-19.82 2596.9,-23.68 2597.16,-16.68"/>
</g>
<!-- 39&#45;&gt;0 -->
<g id="edge24" class="edge">
<title>39&#45;&gt;0</title>
<path fill="none" stroke="grey" stroke-width="2" d="M3395.63,-215.99C3389.9,-182.01 3371.89,-106.1 3322,-72 3261.79,-30.84 2742.33,-21.28 2597.41,-19.41"/>
<polygon fill="grey" stroke="grey" stroke-width="2" points="2597.29,-15.91 2587.24,-19.28 2597.2,-22.91 2597.29,-15.91"/>
</g>
<!-- 40&#45;&gt;0 -->
<g id="edge25" class="edge">
<title>40&#45;&gt;0</title>
<path fill="none" stroke="grey" stroke-width="2" d="M3860.75,-215.99C3818.06,-181.3 3714.33,-103.08 3612,-72 3513.4,-42.06 2772.92,-23.76 2597.28,-19.81"/>
<polygon fill="grey" stroke="grey" stroke-width="2" points="2597.31,-16.31 2587.24,-19.58 2597.16,-23.31 2597.31,-16.31"/>
</g>
<!-- 41&#45;&gt;0 -->
<g id="edge26" class="edge">
<title>41&#45;&gt;0</title>
<path fill="none" stroke="grey" stroke-width="2" d="M4340.48,-215.86C4291.01,-180.95 4171.31,-102.31 4057,-72 3912.16,-33.59 2814.67,-21.38 2597.33,-19.33"/>
<polygon fill="grey" stroke="grey" stroke-width="2" points="2597.12,-15.83 2587.09,-19.23 2597.06,-22.83 2597.12,-15.83"/>
</g>
<!-- 42 -->
<g id="node43" class="node">
<title>42</title>
<path fill="none" stroke="#5682d8" stroke-width="2" d="M954.5,-108C954.5,-108 817.5,-108 817.5,-108 811.5,-108 805.5,-102 805.5,-96 805.5,-96 805.5,-84 805.5,-84 805.5,-78 811.5,-72 817.5,-72 817.5,-72 954.5,-72 954.5,-72 960.5,-72 966.5,-78 966.5,-84 966.5,-84 966.5,-96 966.5,-96 966.5,-102 960.5,-108 954.5,-108"/>
<text text-anchor="middle" x="886" y="-87.5" font-family="sans" font-size="10.00">count_mapped_to_references</text>
</g>
<!-- 42&#45;&gt;0 -->
<g id="edge27" class="edge">
<title>42&#45;&gt;0</title>
<path fill="none" stroke="grey" stroke-width="2" d="M966.66,-75.41C976.52,-74.08 986.48,-72.89 996,-72 1603.39,-14.98 2348.55,-17.21 2522.48,-18.62"/>
<polygon fill="grey" stroke="grey" stroke-width="2" points="2522.62,-22.12 2532.65,-18.71 2522.68,-15.12 2522.62,-22.12"/>
</g>
<!-- 43&#45;&gt;42 -->
<g id="edge75" class="edge">
<title>43&#45;&gt;42</title>
<path fill="none" stroke="grey" stroke-width="2" d="M784.87,-215.74C785.54,-196.6 789.11,-165.59 804,-144 812.6,-131.53 825.19,-121.3 837.94,-113.28"/>
<polygon fill="grey" stroke="grey" stroke-width="2" points="839.91,-116.18 846.74,-108.07 836.35,-110.15 839.91,-116.18"/>
</g>
<!-- 44 -->
<g id="node45" class="node">
<title>44</title>
<path fill="none" stroke="#d8bc56" stroke-width="2" d="M946.5,-180C946.5,-180 825.5,-180 825.5,-180 819.5,-180 813.5,-174 813.5,-168 813.5,-168 813.5,-156 813.5,-156 813.5,-150 819.5,-144 825.5,-144 825.5,-144 946.5,-144 946.5,-144 952.5,-144 958.5,-150 958.5,-156 958.5,-156 958.5,-168 958.5,-168 958.5,-174 952.5,-180 946.5,-180"/>
<text text-anchor="middle" x="886" y="-159.5" font-family="sans" font-size="10.00">bwa_mem_illumina_index</text>
</g>
<!-- 43&#45;&gt;44 -->
<g id="edge78" class="edge">
<title>43&#45;&gt;44</title>
<path fill="none" stroke="grey" stroke-width="2" d="M809.71,-215.88C822.67,-206.89 838.73,-195.76 852.77,-186.03"/>
<polygon fill="grey" stroke="grey" stroke-width="2" points="854.97,-188.76 861.2,-180.19 850.98,-183.01 854.97,-188.76"/>
</g>
<!-- 44&#45;&gt;42 -->
<g id="edge76" class="edge">
<title>44&#45;&gt;42</title>
<path fill="none" stroke="grey" stroke-width="2" d="M886,-143.7C886,-135.98 886,-126.71 886,-118.11"/>
<polygon fill="grey" stroke="grey" stroke-width="2" points="889.5,-118.1 886,-108.1 882.5,-118.1 889.5,-118.1"/>
</g>
<!-- 45 -->
<g id="node46" class="node">
<title>45</title>
<path fill="none" stroke="#5682d8" stroke-width="2" d="M1368.5,-108C1368.5,-108 1231.5,-108 1231.5,-108 1225.5,-108 1219.5,-102 1219.5,-96 1219.5,-96 1219.5,-84 1219.5,-84 1219.5,-78 1225.5,-72 1231.5,-72 1231.5,-72 1368.5,-72 1368.5,-72 1374.5,-72 1380.5,-78 1380.5,-84 1380.5,-84 1380.5,-96 1380.5,-96 1380.5,-102 1374.5,-108 1368.5,-108"/>
<text text-anchor="middle" x="1300" y="-87.5" font-family="sans" font-size="10.00">count_mapped_to_references</text>
</g>
<!-- 45&#45;&gt;0 -->
<g id="edge28" class="edge">
<title>45&#45;&gt;0</title>
<path fill="none" stroke="grey" stroke-width="2" d="M1380.64,-74.53C1387.51,-73.57 1394.37,-72.71 1401,-72 1840.65,-25.12 2378.46,-19.67 2522.86,-19.07"/>
<polygon fill="grey" stroke="grey" stroke-width="2" points="2522.97,-22.57 2532.96,-19.03 2522.94,-15.57 2522.97,-22.57"/>
</g>
<!-- 46&#45;&gt;45 -->
<g id="edge79" class="edge">
<title>46&#45;&gt;45</title>
<path fill="none" stroke="grey" stroke-width="2" d="M1199.12,-215.74C1200.06,-196.61 1204.02,-165.6 1219,-144 1227.56,-131.66 1240.01,-121.47 1252.6,-113.44"/>
<polygon fill="grey" stroke="grey" stroke-width="2" points="1254.52,-116.38 1261.29,-108.23 1250.92,-110.37 1254.52,-116.38"/>
</g>
<!-- 47 -->
<g id="node48" class="node">
<title>47</title>
<path fill="none" stroke="#d8bc56" stroke-width="2" d="M1360.5,-180C1360.5,-180 1239.5,-180 1239.5,-180 1233.5,-180 1227.5,-174 1227.5,-168 1227.5,-168 1227.5,-156 1227.5,-156 1227.5,-150 1233.5,-144 1239.5,-144 1239.5,-144 1360.5,-144 1360.5,-144 1366.5,-144 1372.5,-150 1372.5,-156 1372.5,-156 1372.5,-168 1372.5,-168 1372.5,-174 1366.5,-180 1360.5,-180"/>
<text text-anchor="middle" x="1300" y="-159.5" font-family="sans" font-size="10.00">bwa_mem_illumina_index</text>
</g>
<!-- 46&#45;&gt;47 -->
<g id="edge82" class="edge">
<title>46&#45;&gt;47</title>
<path fill="none" stroke="grey" stroke-width="2" d="M1223.71,-215.88C1236.67,-206.89 1252.73,-195.76 1266.77,-186.03"/>
<polygon fill="grey" stroke="grey" stroke-width="2" points="1268.97,-188.76 1275.2,-180.19 1264.98,-183.01 1268.97,-188.76"/>
</g>
<!-- 47&#45;&gt;45 -->
<g id="edge80" class="edge">
<title>47&#45;&gt;45</title>
<path fill="none" stroke="grey" stroke-width="2" d="M1300,-143.7C1300,-135.98 1300,-126.71 1300,-118.11"/>
<polygon fill="grey" stroke="grey" stroke-width="2" points="1303.5,-118.1 1300,-108.1 1296.5,-118.1 1303.5,-118.1"/>
</g>
<!-- 48 -->
<g id="node49" class="node">
<title>48</title>
<path fill="none" stroke="#5682d8" stroke-width="2" d="M1782.5,-108C1782.5,-108 1645.5,-108 1645.5,-108 1639.5,-108 1633.5,-102 1633.5,-96 1633.5,-96 1633.5,-84 1633.5,-84 1633.5,-78 1639.5,-72 1645.5,-72 1645.5,-72 1782.5,-72 1782.5,-72 1788.5,-72 1794.5,-78 1794.5,-84 1794.5,-84 1794.5,-96 1794.5,-96 1794.5,-102 1788.5,-108 1782.5,-108"/>
<text text-anchor="middle" x="1714" y="-87.5" font-family="sans" font-size="10.00">count_mapped_to_references</text>
</g>
<!-- 48&#45;&gt;0 -->
<g id="edge29" class="edge">
<title>48&#45;&gt;0</title>
<path fill="none" stroke="grey" stroke-width="2" d="M1794.5,-73.98C1799.4,-73.26 1804.26,-72.59 1809,-72 2081.71,-38.08 2413.03,-24.13 2522.74,-20.22"/>
<polygon fill="grey" stroke="grey" stroke-width="2" points="2523.09,-23.71 2532.96,-19.87 2522.84,-16.72 2523.09,-23.71"/>
</g>
<!-- 49&#45;&gt;48 -->
<g id="edge83" class="edge">
<title>49&#45;&gt;48</title>
<path fill="none" stroke="grey" stroke-width="2" d="M1613.12,-215.74C1614.06,-196.61 1618.02,-165.6 1633,-144 1641.56,-131.66 1654.01,-121.47 1666.6,-113.44"/>
<polygon fill="grey" stroke="grey" stroke-width="2" points="1668.52,-116.38 1675.29,-108.23 1664.92,-110.37 1668.52,-116.38"/>
</g>
<!-- 50 -->
<g id="node51" class="node">
<title>50</title>
<path fill="none" stroke="#d8bc56" stroke-width="2" d="M1774.5,-180C1774.5,-180 1653.5,-180 1653.5,-180 1647.5,-180 1641.5,-174 1641.5,-168 1641.5,-168 1641.5,-156 1641.5,-156 1641.5,-150 1647.5,-144 1653.5,-144 1653.5,-144 1774.5,-144 1774.5,-144 1780.5,-144 1786.5,-150 1786.5,-156 1786.5,-156 1786.5,-168 1786.5,-168 1786.5,-174 1780.5,-180 1774.5,-180"/>
<text text-anchor="middle" x="1714" y="-159.5" font-family="sans" font-size="10.00">bwa_mem_illumina_index</text>
</g>
<!-- 49&#45;&gt;50 -->
<g id="edge86" class="edge">
<title>49&#45;&gt;50</title>
<path fill="none" stroke="grey" stroke-width="2" d="M1637.71,-215.88C1650.67,-206.89 1666.73,-195.76 1680.77,-186.03"/>
<polygon fill="grey" stroke="grey" stroke-width="2" points="1682.97,-188.76 1689.2,-180.19 1678.98,-183.01 1682.97,-188.76"/>
</g>
<!-- 50&#45;&gt;48 -->
<g id="edge84" class="edge">
<title>50&#45;&gt;48</title>
<path fill="none" stroke="grey" stroke-width="2" d="M1714,-143.7C1714,-135.98 1714,-126.71 1714,-118.11"/>
<polygon fill="grey" stroke="grey" stroke-width="2" points="1717.5,-118.1 1714,-108.1 1710.5,-118.1 1717.5,-118.1"/>
</g>
<!-- 51 -->
<g id="node52" class="node">
<title>51</title>
<path fill="none" stroke="#5682d8" stroke-width="2" d="M2172.5,-108C2172.5,-108 2035.5,-108 2035.5,-108 2029.5,-108 2023.5,-102 2023.5,-96 2023.5,-96 2023.5,-84 2023.5,-84 2023.5,-78 2029.5,-72 2035.5,-72 2035.5,-72 2172.5,-72 2172.5,-72 2178.5,-72 2184.5,-78 2184.5,-84 2184.5,-84 2184.5,-96 2184.5,-96 2184.5,-102 2178.5,-108 2172.5,-108"/>
<text text-anchor="middle" x="2104" y="-87.5" font-family="sans" font-size="10.00">count_mapped_to_references</text>
</g>
<!-- 51&#45;&gt;0 -->
<g id="edge30" class="edge">
<title>51&#45;&gt;0</title>
<path fill="none" stroke="grey" stroke-width="2" d="M2184.92,-73.54C2187.99,-73.01 2191.02,-72.5 2194,-72 2313.93,-52 2456.7,-32.59 2522.9,-23.84"/>
<polygon fill="grey" stroke="grey" stroke-width="2" points="2523.39,-27.3 2532.85,-22.53 2522.48,-20.36 2523.39,-27.3"/>
</g>
<!-- 52&#45;&gt;51 -->
<g id="edge87" class="edge">
<title>52&#45;&gt;51</title>
<path fill="none" stroke="grey" stroke-width="2" d="M2027.85,-215.85C2029.44,-197.08 2033.98,-166.66 2047,-144 2053.31,-133.02 2062.64,-122.97 2071.94,-114.64"/>
<polygon fill="grey" stroke="grey" stroke-width="2" points="2074.31,-117.22 2079.67,-108.08 2069.78,-111.88 2074.31,-117.22"/>
</g>
<!-- 53 -->
<g id="node54" class="node">
<title>53</title>
<path fill="none" stroke="#d8bc56" stroke-width="2" d="M2188.5,-180C2188.5,-180 2067.5,-180 2067.5,-180 2061.5,-180 2055.5,-174 2055.5,-168 2055.5,-168 2055.5,-156 2055.5,-156 2055.5,-150 2061.5,-144 2067.5,-144 2067.5,-144 2188.5,-144 2188.5,-144 2194.5,-144 2200.5,-150 2200.5,-156 2200.5,-156 2200.5,-168 2200.5,-168 2200.5,-174 2194.5,-180 2188.5,-180"/>
<text text-anchor="middle" x="2128" y="-159.5" font-family="sans" font-size="10.00">bwa_mem_illumina_index</text>
</g>
<!-- 52&#45;&gt;53 -->
<g id="edge90" class="edge">
<title>52&#45;&gt;53</title>
<path fill="none" stroke="grey" stroke-width="2" d="M2051.71,-215.88C2064.67,-206.89 2080.73,-195.76 2094.77,-186.03"/>
<polygon fill="grey" stroke="grey" stroke-width="2" points="2096.97,-188.76 2103.2,-180.19 2092.98,-183.01 2096.97,-188.76"/>
</g>
<!-- 53&#45;&gt;51 -->
<g id="edge88" class="edge">
<title>53&#45;&gt;51</title>
<path fill="none" stroke="grey" stroke-width="2" d="M2122.07,-143.7C2119.39,-135.9 2116.17,-126.51 2113.2,-117.83"/>
<polygon fill="grey" stroke="grey" stroke-width="2" points="2116.42,-116.43 2109.86,-108.1 2109.8,-118.7 2116.42,-116.43"/>
</g>
<!-- 54 -->
<g id="node55" class="node">
<title>54</title>
<path fill="none" stroke="#5682d8" stroke-width="2" d="M2545.5,-108C2545.5,-108 2408.5,-108 2408.5,-108 2402.5,-108 2396.5,-102 2396.5,-96 2396.5,-96 2396.5,-84 2396.5,-84 2396.5,-78 2402.5,-72 2408.5,-72 2408.5,-72 2545.5,-72 2545.5,-72 2551.5,-72 2557.5,-78 2557.5,-84 2557.5,-84 2557.5,-96 2557.5,-96 2557.5,-102 2551.5,-108 2545.5,-108"/>
<text text-anchor="middle" x="2477" y="-87.5" font-family="sans" font-size="10.00">count_mapped_to_references</text>
</g>
<!-- 54&#45;&gt;0 -->
<g id="edge31" class="edge">
<title>54&#45;&gt;0</title>
<path fill="none" stroke="grey" stroke-width="2" d="M2497.52,-71.7C2507.87,-62.97 2520.59,-52.24 2531.84,-42.75"/>
<polygon fill="grey" stroke="grey" stroke-width="2" points="2534.33,-45.23 2539.72,-36.1 2529.82,-39.88 2534.33,-45.23"/>
</g>
<!-- 55&#45;&gt;54 -->
<g id="edge91" class="edge">
<title>55&#45;&gt;54</title>
<path fill="none" stroke="grey" stroke-width="2" d="M2385.47,-215.88C2397.04,-206.07 2411.12,-193.13 2422,-180 2438.19,-160.47 2453.08,-135.76 2463.27,-117.34"/>
<polygon fill="grey" stroke="grey" stroke-width="2" points="2466.47,-118.79 2468.16,-108.33 2460.31,-115.45 2466.47,-118.79"/>
</g>
<!-- 56 -->
<g id="node57" class="node">
<title>56</title>
<path fill="none" stroke="#d8bc56" stroke-width="2" d="M2602.5,-180C2602.5,-180 2481.5,-180 2481.5,-180 2475.5,-180 2469.5,-174 2469.5,-168 2469.5,-168 2469.5,-156 2469.5,-156 2469.5,-150 2475.5,-144 2481.5,-144 2481.5,-144 2602.5,-144 2602.5,-144 2608.5,-144 2614.5,-150 2614.5,-156 2614.5,-156 2614.5,-168 2614.5,-168 2614.5,-174 2608.5,-180 2602.5,-180"/>
<text text-anchor="middle" x="2542" y="-159.5" font-family="sans" font-size="10.00">bwa_mem_illumina_index</text>
</g>
<!-- 55&#45;&gt;56 -->
<g id="edge94" class="edge">
<title>55&#45;&gt;56</title>
<path fill="none" stroke="grey" stroke-width="2" d="M2407.54,-215.88C2432.2,-206.18 2463.22,-193.98 2489.25,-183.74"/>
<polygon fill="grey" stroke="grey" stroke-width="2" points="2490.57,-186.99 2498.6,-180.07 2488.01,-180.47 2490.57,-186.99"/>
</g>
<!-- 56&#45;&gt;54 -->
<g id="edge92" class="edge">
<title>56&#45;&gt;54</title>
<path fill="none" stroke="grey" stroke-width="2" d="M2525.93,-143.7C2518.06,-135.22 2508.44,-124.86 2499.83,-115.58"/>
<polygon fill="grey" stroke="grey" stroke-width="2" points="2502.25,-113.05 2492.88,-108.1 2497.12,-117.81 2502.25,-113.05"/>
</g>
<!-- 57 -->
<g id="node58" class="node">
<title>57</title>
<path fill="none" stroke="#5682d8" stroke-width="2" d="M2923.5,-108C2923.5,-108 2786.5,-108 2786.5,-108 2780.5,-108 2774.5,-102 2774.5,-96 2774.5,-96 2774.5,-84 2774.5,-84 2774.5,-78 2780.5,-72 2786.5,-72 2786.5,-72 2923.5,-72 2923.5,-72 2929.5,-72 2935.5,-78 2935.5,-84 2935.5,-84 2935.5,-96 2935.5,-96 2935.5,-102 2929.5,-108 2923.5,-108"/>
<text text-anchor="middle" x="2855" y="-87.5" font-family="sans" font-size="10.00">count_mapped_to_references</text>
</g>
<!-- 57&#45;&gt;0 -->
<g id="edge32" class="edge">
<title>57&#45;&gt;0</title>
<path fill="none" stroke="grey" stroke-width="2" d="M2783.21,-71.97C2724.39,-58.01 2643.52,-38.82 2597.01,-27.78"/>
<polygon fill="grey" stroke="grey" stroke-width="2" points="2597.6,-24.33 2587.07,-25.42 2595.99,-31.14 2597.6,-24.33"/>
</g>
<!-- 58&#45;&gt;57 -->
<g id="edge95" class="edge">
<title>58&#45;&gt;57</title>
<path fill="none" stroke="grey" stroke-width="2" d="M2664.63,-217.96C2735.42,-202.43 2835.61,-180.39 2836,-180 2851.87,-164.01 2855.96,-138.22 2856.46,-118.51"/>
<polygon fill="grey" stroke="grey" stroke-width="2" points="2859.96,-118.27 2856.43,-108.29 2852.96,-118.3 2859.96,-118.27"/>
</g>
<!-- 59 -->
<g id="node60" class="node">
<title>59</title>
<path fill="none" stroke="#d8bc56" stroke-width="2" d="M3016.5,-180C3016.5,-180 2895.5,-180 2895.5,-180 2889.5,-180 2883.5,-174 2883.5,-168 2883.5,-168 2883.5,-156 2883.5,-156 2883.5,-150 2889.5,-144 2895.5,-144 2895.5,-144 3016.5,-144 3016.5,-144 3022.5,-144 3028.5,-150 3028.5,-156 3028.5,-156 3028.5,-168 3028.5,-168 3028.5,-174 3022.5,-180 3016.5,-180"/>
<text text-anchor="middle" x="2956" y="-159.5" font-family="sans" font-size="10.00">bwa_mem_illumina_index</text>
</g>
<!-- 58&#45;&gt;59 -->
<g id="edge98" class="edge">
<title>58&#45;&gt;59</title>
<path fill="none" stroke="grey" stroke-width="2" d="M2664.88,-217.86C2667.96,-217.23 2671.01,-216.6 2674,-216 2760.4,-198.61 2782.42,-196.45 2869,-180 2870.46,-179.72 2871.94,-179.44 2873.43,-179.16"/>
<polygon fill="grey" stroke="grey" stroke-width="2" points="2874.22,-182.57 2883.38,-177.25 2872.9,-175.69 2874.22,-182.57"/>
</g>
<!-- 59&#45;&gt;57 -->
<g id="edge96" class="edge">
<title>59&#45;&gt;57</title>
<path fill="none" stroke="grey" stroke-width="2" d="M2931.29,-143.88C2918.33,-134.89 2902.27,-123.76 2888.23,-114.03"/>
<polygon fill="grey" stroke="grey" stroke-width="2" points="2890.02,-111.01 2879.8,-108.19 2886.03,-116.76 2890.02,-111.01"/>
</g>
<!-- 60 -->
<g id="node61" class="node">
<title>60</title>
<path fill="none" stroke="#5682d8" stroke-width="2" d="M3272.5,-108C3272.5,-108 3135.5,-108 3135.5,-108 3129.5,-108 3123.5,-102 3123.5,-96 3123.5,-96 3123.5,-84 3123.5,-84 3123.5,-78 3129.5,-72 3135.5,-72 3135.5,-72 3272.5,-72 3272.5,-72 3278.5,-72 3284.5,-78 3284.5,-84 3284.5,-84 3284.5,-96 3284.5,-96 3284.5,-102 3278.5,-108 3272.5,-108"/>
<text text-anchor="middle" x="3204" y="-87.5" font-family="sans" font-size="10.00">count_mapped_to_references</text>
</g>
<!-- 60&#45;&gt;0 -->
<g id="edge33" class="edge">
<title>60&#45;&gt;0</title>
<path fill="none" stroke="grey" stroke-width="2" d="M3123.48,-74.13C3118.59,-73.37 3113.73,-72.65 3109,-72 2917.34,-45.64 2686.26,-27.88 2597.35,-21.56"/>
<polygon fill="grey" stroke="grey" stroke-width="2" points="2597.45,-18.06 2587.22,-20.85 2596.95,-25.04 2597.45,-18.06"/>
</g>
<!-- 61&#45;&gt;60 -->
<g id="edge99" class="edge">
<title>61&#45;&gt;60</title>
<path fill="none" stroke="grey" stroke-width="2" d="M3092.56,-215.96C3107.13,-197.82 3131.16,-168.41 3153,-144 3161.43,-134.58 3170.97,-124.52 3179.49,-115.72"/>
<polygon fill="grey" stroke="grey" stroke-width="2" points="3182.19,-117.97 3186.67,-108.36 3177.18,-113.08 3182.19,-117.97"/>
</g>
<!-- 62 -->
<g id="node63" class="node">
<title>62</title>
<path fill="none" stroke="#d8bc56" stroke-width="2" d="M3294.5,-180C3294.5,-180 3173.5,-180 3173.5,-180 3167.5,-180 3161.5,-174 3161.5,-168 3161.5,-168 3161.5,-156 3161.5,-156 3161.5,-150 3167.5,-144 3173.5,-144 3173.5,-144 3294.5,-144 3294.5,-144 3300.5,-144 3306.5,-150 3306.5,-156 3306.5,-156 3306.5,-168 3306.5,-168 3306.5,-174 3300.5,-180 3294.5,-180"/>
<text text-anchor="middle" x="3234" y="-159.5" font-family="sans" font-size="10.00">bwa_mem_illumina_index</text>
</g>
<!-- 61&#45;&gt;62 -->
<g id="edge102" class="edge">
<title>61&#45;&gt;62</title>
<path fill="none" stroke="grey" stroke-width="2" d="M3116.92,-215.88C3138.01,-206.35 3164.46,-194.41 3186.87,-184.28"/>
<polygon fill="grey" stroke="grey" stroke-width="2" points="3188.53,-187.37 3196.21,-180.07 3185.65,-180.99 3188.53,-187.37"/>
</g>
<!-- 62&#45;&gt;60 -->
<g id="edge100" class="edge">
<title>62&#45;&gt;60</title>
<path fill="none" stroke="grey" stroke-width="2" d="M3226.58,-143.7C3223.21,-135.81 3219.13,-126.3 3215.38,-117.55"/>
<polygon fill="grey" stroke="grey" stroke-width="2" points="3218.49,-115.92 3211.33,-108.1 3212.05,-118.67 3218.49,-115.92"/>
</g>
<!-- 63 -->
<g id="node64" class="node">
<title>63</title>
<path fill="none" stroke="#5682d8" stroke-width="2" d="M3550.5,-108C3550.5,-108 3413.5,-108 3413.5,-108 3407.5,-108 3401.5,-102 3401.5,-96 3401.5,-96 3401.5,-84 3401.5,-84 3401.5,-78 3407.5,-72 3413.5,-72 3413.5,-72 3550.5,-72 3550.5,-72 3556.5,-72 3562.5,-78 3562.5,-84 3562.5,-84 3562.5,-96 3562.5,-96 3562.5,-102 3556.5,-108 3550.5,-108"/>
<text text-anchor="middle" x="3482" y="-87.5" font-family="sans" font-size="10.00">count_mapped_to_references</text>
</g>
<!-- 63&#45;&gt;0 -->
<g id="edge34" class="edge">
<title>63&#45;&gt;0</title>
<path fill="none" stroke="grey" stroke-width="2" d="M3401.24,-73.91C3396.43,-73.21 3391.66,-72.56 3387,-72 3083.68,-35.26 2714.48,-23 2597.44,-19.89"/>
<polygon fill="grey" stroke="grey" stroke-width="2" points="2597.32,-16.39 2587.23,-19.63 2597.14,-23.39 2597.32,-16.39"/>
</g>
<!-- 64&#45;&gt;63 -->
<g id="edge103" class="edge">
<title>64&#45;&gt;63</title>
<path fill="none" stroke="grey" stroke-width="2" d="M3523.39,-215.99C3508.71,-207.43 3493.49,-195.52 3485,-180 3474.76,-161.29 3474.68,-136.91 3476.79,-118.4"/>
<polygon fill="grey" stroke="grey" stroke-width="2" points="3480.29,-118.65 3478.22,-108.26 3473.36,-117.67 3480.29,-118.65"/>
</g>
<!-- 65 -->
<g id="node66" class="node">
<title>65</title>
<path fill="none" stroke="#d8bc56" stroke-width="2" d="M3626.5,-180C3626.5,-180 3505.5,-180 3505.5,-180 3499.5,-180 3493.5,-174 3493.5,-168 3493.5,-168 3493.5,-156 3493.5,-156 3493.5,-150 3499.5,-144 3505.5,-144 3505.5,-144 3626.5,-144 3626.5,-144 3632.5,-144 3638.5,-150 3638.5,-156 3638.5,-156 3638.5,-168 3638.5,-168 3638.5,-174 3632.5,-180 3626.5,-180"/>
<text text-anchor="middle" x="3566" y="-159.5" font-family="sans" font-size="10.00">bwa_mem_illumina_index</text>
</g>
<!-- 64&#45;&gt;65 -->
<g id="edge106" class="edge">
<title>64&#45;&gt;65</title>
<path fill="none" stroke="grey" stroke-width="2" d="M3562.99,-215.7C3563.43,-207.98 3563.96,-198.71 3564.45,-190.11"/>
<polygon fill="grey" stroke="grey" stroke-width="2" points="3567.95,-190.29 3565.02,-180.1 3560.96,-189.89 3567.95,-190.29"/>
</g>
<!-- 65&#45;&gt;63 -->
<g id="edge104" class="edge">
<title>65&#45;&gt;63</title>
<path fill="none" stroke="grey" stroke-width="2" d="M3545.24,-143.7C3534.76,-134.97 3521.89,-124.24 3510.5,-114.75"/>
<polygon fill="grey" stroke="grey" stroke-width="2" points="3512.45,-111.82 3502.53,-108.1 3507.97,-117.19 3512.45,-111.82"/>
</g>
<!-- 66 -->
<g id="node67" class="node">
<title>66</title>
<path fill="none" stroke="#5682d8" stroke-width="2" d="M3996.5,-108C3996.5,-108 3859.5,-108 3859.5,-108 3853.5,-108 3847.5,-102 3847.5,-96 3847.5,-96 3847.5,-84 3847.5,-84 3847.5,-78 3853.5,-72 3859.5,-72 3859.5,-72 3996.5,-72 3996.5,-72 4002.5,-72 4008.5,-78 4008.5,-84 4008.5,-84 4008.5,-96 4008.5,-96 4008.5,-102 4002.5,-108 3996.5,-108"/>
<text text-anchor="middle" x="3928" y="-87.5" font-family="sans" font-size="10.00">count_mapped_to_references</text>
</g>
<!-- 66&#45;&gt;0 -->
<g id="edge35" class="edge">
<title>66&#45;&gt;0</title>
<path fill="none" stroke="grey" stroke-width="2" d="M3847.33,-79.56C3821.39,-76.79 3792.51,-73.97 3766,-72 3306.21,-37.8 2746.05,-23.24 2597.57,-19.82"/>
<polygon fill="grey" stroke="grey" stroke-width="2" points="2597.28,-16.31 2587.21,-19.59 2597.12,-23.31 2597.28,-16.31"/>
</g>
<!-- 67&#45;&gt;66 -->
<g id="edge107" class="edge">
<title>67&#45;&gt;66</title>
<path fill="none" stroke="grey" stroke-width="2" d="M3995.72,-215.99C3978.27,-207.67 3960.01,-195.94 3948,-180 3934.63,-162.26 3929.91,-137.25 3928.37,-118.25"/>
<polygon fill="grey" stroke="grey" stroke-width="2" points="3931.86,-117.92 3927.8,-108.13 3924.87,-118.31 3931.86,-117.92"/>
</g>
<!-- 68 -->
<g id="node69" class="node">
<title>68</title>
<path fill="none" stroke="#d8bc56" stroke-width="2" d="M4089.5,-180C4089.5,-180 3968.5,-180 3968.5,-180 3962.5,-180 3956.5,-174 3956.5,-168 3956.5,-168 3956.5,-156 3956.5,-156 3956.5,-150 3962.5,-144 3968.5,-144 3968.5,-144 4089.5,-144 4089.5,-144 4095.5,-144 4101.5,-150 4101.5,-156 4101.5,-156 4101.5,-168 4101.5,-168 4101.5,-174 4095.5,-180 4089.5,-180"/>
<text text-anchor="middle" x="4029" y="-159.5" font-family="sans" font-size="10.00">bwa_mem_illumina_index</text>
</g>
<!-- 67&#45;&gt;68 -->
<g id="edge110" class="edge">
<title>67&#45;&gt;68</title>
<path fill="none" stroke="grey" stroke-width="2" d="M4041.04,-215.7C4039.28,-207.98 4037.16,-198.71 4035.2,-190.11"/>
<polygon fill="grey" stroke="grey" stroke-width="2" points="4038.55,-189.07 4032.91,-180.1 4031.73,-190.63 4038.55,-189.07"/>
</g>
<!-- 68&#45;&gt;66 -->
<g id="edge108" class="edge">
<title>68&#45;&gt;66</title>
<path fill="none" stroke="grey" stroke-width="2" d="M4004.29,-143.88C3991.33,-134.89 3975.27,-123.76 3961.23,-114.03"/>
<polygon fill="grey" stroke="grey" stroke-width="2" points="3963.02,-111.01 3952.8,-108.19 3959.03,-116.76 3963.02,-111.01"/>
</g>
<!-- 69 -->
<g id="node70" class="node">
<title>69</title>
<path fill="none" stroke="#5682d8" stroke-width="2" d="M4345.5,-108C4345.5,-108 4208.5,-108 4208.5,-108 4202.5,-108 4196.5,-102 4196.5,-96 4196.5,-96 4196.5,-84 4196.5,-84 4196.5,-78 4202.5,-72 4208.5,-72 4208.5,-72 4345.5,-72 4345.5,-72 4351.5,-72 4357.5,-78 4357.5,-84 4357.5,-84 4357.5,-96 4357.5,-96 4357.5,-102 4351.5,-108 4345.5,-108"/>
<text text-anchor="middle" x="4277" y="-87.5" font-family="sans" font-size="10.00">count_mapped_to_references</text>
</g>
<!-- 69&#45;&gt;0 -->
<g id="edge36" class="edge">
<title>69&#45;&gt;0</title>
<path fill="none" stroke="grey" stroke-width="2" d="M4196.26,-73.73C4191.45,-73.08 4186.67,-72.49 4182,-72 3860.11,-38.12 2809.52,-22.36 2597.5,-19.49"/>
<polygon fill="grey" stroke="grey" stroke-width="2" points="2597.25,-15.99 2587.21,-19.35 2597.16,-22.98 2597.25,-15.99"/>
</g>
<!-- 70&#45;&gt;69 -->
<g id="edge111" class="edge">
<title>70&#45;&gt;69</title>
<path fill="none" stroke="grey" stroke-width="2" d="M4459.37,-216.81C4407.84,-204.23 4344.43,-187.66 4334,-180 4312.4,-164.12 4296.89,-137.38 4287.55,-117.35"/>
<polygon fill="grey" stroke="grey" stroke-width="2" points="4290.72,-115.85 4283.47,-108.13 4284.32,-118.69 4290.72,-115.85"/>
</g>
<!-- 71 -->
<g id="node72" class="node">
<title>71</title>
<path fill="none" stroke="#d8bc56" stroke-width="2" d="M4475.5,-180C4475.5,-180 4354.5,-180 4354.5,-180 4348.5,-180 4342.5,-174 4342.5,-168 4342.5,-168 4342.5,-156 4342.5,-156 4342.5,-150 4348.5,-144 4354.5,-144 4354.5,-144 4475.5,-144 4475.5,-144 4481.5,-144 4487.5,-150 4487.5,-156 4487.5,-156 4487.5,-168 4487.5,-168 4487.5,-174 4481.5,-180 4475.5,-180"/>
<text text-anchor="middle" x="4415" y="-159.5" font-family="sans" font-size="10.00">bwa_mem_illumina_index</text>
</g>
<!-- 70&#45;&gt;71 -->
<g id="edge114" class="edge">
<title>70&#45;&gt;71</title>
<path fill="none" stroke="grey" stroke-width="2" d="M4500.36,-215.88C4485.58,-206.72 4467.21,-195.34 4451.3,-185.48"/>
<polygon fill="grey" stroke="grey" stroke-width="2" points="4453.09,-182.48 4442.75,-180.19 4449.41,-188.43 4453.09,-182.48"/>
</g>
<!-- 71&#45;&gt;69 -->
<g id="edge112" class="edge">
<title>71&#45;&gt;69</title>
<path fill="none" stroke="grey" stroke-width="2" d="M4381.24,-143.88C4362.78,-134.51 4339.72,-122.81 4319.98,-112.8"/>
<polygon fill="grey" stroke="grey" stroke-width="2" points="4321.39,-109.59 4310.89,-108.19 4318.22,-115.83 4321.39,-109.59"/>
</g>
<!-- 72 -->
<g id="node73" class="node">
<title>72</title>
<path fill="none" stroke="#56d8c9" stroke-width="2" d="M5056.5,-108C5056.5,-108 4935.5,-108 4935.5,-108 4929.5,-108 4923.5,-102 4923.5,-96 4923.5,-96 4923.5,-84 4923.5,-84 4923.5,-78 4929.5,-72 4935.5,-72 4935.5,-72 5056.5,-72 5056.5,-72 5062.5,-72 5068.5,-78 5068.5,-84 5068.5,-84 5068.5,-96 5068.5,-96 5068.5,-102 5062.5,-108 5056.5,-108"/>
<text text-anchor="middle" x="4996" y="-87.5" font-family="sans" font-size="10.00">map_bwa_candidates_loci</text>
</g>
<!-- 72&#45;&gt;0 -->
<g id="edge37" class="edge">
<title>72&#45;&gt;0</title>
<path fill="none" stroke="grey" stroke-width="2" d="M4923.25,-73.07C4920.47,-72.67 4917.71,-72.31 4915,-72 4438.9,-17.16 2860.61,-18.31 2597.38,-18.9"/>
<polygon fill="grey" stroke="grey" stroke-width="2" points="2597.19,-15.4 2587.2,-18.92 2597.2,-22.4 2597.19,-15.4"/>
</g>
<!-- 73 -->
<g id="node74" class="node">
<title>73</title>
<path fill="none" stroke="#56a9d8" stroke-width="2" d="M5048,-180C5048,-180 4944,-180 4944,-180 4938,-180 4932,-174 4932,-168 4932,-168 4932,-156 4932,-156 4932,-150 4938,-144 4944,-144 4944,-144 5048,-144 5048,-144 5054,-144 5060,-150 5060,-156 5060,-156 5060,-168 5060,-168 5060,-174 5054,-180 5048,-180"/>
<text text-anchor="middle" x="4996" y="-159.5" font-family="sans" font-size="10.00">bwa_index_long_reads</text>
</g>
<!-- 73&#45;&gt;72 -->
<g id="edge115" class="edge">
<title>73&#45;&gt;72</title>
<path fill="none" stroke="grey" stroke-width="2" d="M4996,-143.7C4996,-135.98 4996,-126.71 4996,-118.11"/>
<polygon fill="grey" stroke="grey" stroke-width="2" points="4999.5,-118.1 4996,-108.1 4992.5,-118.1 4999.5,-118.1"/>
</g>
<!-- 74 -->
<g id="node75" class="node">
<title>74</title>
<path fill="none" stroke="#56d0d8" stroke-width="2" d="M4744,-108C4744,-108 4532,-108 4532,-108 4526,-108 4520,-102 4520,-96 4520,-96 4520,-84 4520,-84 4520,-78 4526,-72 4532,-72 4532,-72 4744,-72 4744,-72 4750,-72 4756,-78 4756,-84 4756,-84 4756,-96 4756,-96 4756,-102 4750,-108 4744,-108"/>
<text text-anchor="middle" x="4638" y="-87.5" font-family="sans" font-size="10.00">map_bwa_candidates_scaffold_assembly_all</text>
</g>
<!-- 74&#45;&gt;0 -->
<g id="edge38" class="edge">
<title>74&#45;&gt;0</title>
<path fill="none" stroke="grey" stroke-width="2" d="M4519.74,-72.75C4516.8,-72.48 4513.88,-72.23 4511,-72 4118.9,-40.52 2833.19,-22.55 2597.34,-19.47"/>
<polygon fill="grey" stroke="grey" stroke-width="2" points="2597.26,-15.97 2587.22,-19.34 2597.17,-22.97 2597.26,-15.97"/>
</g>
<!-- 75&#45;&gt;74 -->
<g id="edge116" class="edge">
<title>75&#45;&gt;74</title>
<path fill="none" stroke="grey" stroke-width="2" d="M4654.56,-143.7C4652.11,-135.9 4649.16,-126.51 4646.43,-117.83"/>
<polygon fill="grey" stroke="grey" stroke-width="2" points="4649.71,-116.59 4643.38,-108.1 4643.04,-118.69 4649.71,-116.59"/>
</g>
</g>
</svg>
